<?xml version="1.0" encoding="UTF-8"?>
<svg version="1.1" xmlns="http://www.w3.org/2000/svg" width="160" height="100" >
<path d="M0 0 C52.8 0 105.6 0 160 0 C160 33 160 66 160 100 C107.2 100 54.4 100 0 100 C0 67 0 34 0 0 Z " fill="#FEFDFD" transform="translate(0,0)"/>
<path d="M0 0 C1.2065625 0.0309375 1.2065625 0.0309375 2.4375 0.0625 C1.91803489 5.68881926 0.37294322 9.95959576 -2.125 15 C-2.45435547 15.68384766 -2.78371094 16.36769531 -3.12304688 17.07226562 C-3.92767039 18.73981871 -4.7438897 20.40176839 -5.5625 22.0625 C-4.83546875 22.14886719 -4.1084375 22.23523438 -3.359375 22.32421875 C10.93357928 24.32156749 21.27217348 29.32891333 30.5078125 40.5859375 C34.13410427 45.5170874 36.60148336 50.23044713 38.4375 56.0625 C38.85 55.15628906 39.2625 54.25007813 39.6875 53.31640625 C46.08129725 39.65915014 54.22906203 30.18417696 68.5 24.1875 C73.01687066 22.65683489 77.70215209 22.34390387 82.4375 22.0625 C79.26107312 14.20791725 79.26107312 14.20791725 75.625 6.5625 C74.4375 4.0625 74.4375 4.0625 74.4375 0.0625 C76.76171875 -0.16015625 76.76171875 -0.16015625 79.4375 0.0625 C80.95703125 1.50390625 80.95703125 1.50390625 82.25 3.625 C82.745 4.43582031 83.24 5.24664062 83.75 6.08203125 C84.306875 7.06558594 84.86375 8.04914062 85.4375 9.0625 C85.7778125 9.66239746 86.118125 10.26229492 86.46875 10.88037109 C87.57706011 12.85009545 88.66758445 14.82843545 89.75 16.8125 C90.09973877 17.45002197 90.44947754 18.08754395 90.80981445 18.74438477 C92.64334164 22.19506576 93.77027404 25.23035387 94.4375 29.0625 C93.83389648 29.09690186 93.23029297 29.13130371 92.60839844 29.16674805 C76.35674007 30.16582541 64.05501406 32.006244 51.4375 43.0625 C52.19933594 42.66417969 52.96117188 42.26585937 53.74609375 41.85546875 C67.9258017 34.57973845 79.46399199 32.36442896 95.4375 33.0625 C96.4275 33.3925 97.4175 33.7225 98.4375 34.0625 C96.04079646 25.78297868 91.6598283 18.29174261 87.35546875 10.875 C86.4375 9.0625 86.4375 9.0625 86.4375 7.0625 C90.46908048 8.40636016 91.87304994 11.07634022 94.1875 14.4375 C94.62924561 15.0672876 95.07099121 15.6970752 95.52612305 16.34594727 C98.78745678 21.0292675 101.88586381 25.8050984 104.8984375 30.65234375 C106.31051068 32.86363602 107.80501737 34.96188078 109.375 37.0625 C111.4375 40.0625 111.4375 40.0625 111.4375 43.0625 C110.81020996 42.99393799 110.18291992 42.92537598 109.53662109 42.85473633 C101.70780256 42.06421108 93.92832946 41.81170891 86.0625 41.75 C84.83789062 41.72099609 83.61328125 41.69199219 82.3515625 41.66210938 C71.45917799 41.58710885 61.56867795 43.77220894 52.125 49.3125 C51.22136719 49.83328125 50.31773438 50.3540625 49.38671875 50.890625 C48.74347656 51.27734375 48.10023437 51.6640625 47.4375 52.0625 C48.38625 51.629375 49.335 51.19625 50.3125 50.75 C67.41483817 43.44515515 86.8163831 42.77098619 104.6015625 47.89453125 C107.34423933 49.02409099 108.47571718 49.94610639 110.4375 52.0625 C109.56875244 52.04155273 108.70000488 52.02060547 107.80493164 51.99902344 C85.93423655 51.54389406 65.05683908 52.2423511 43.87988281 58.45263672 C38.19934743 59.87106709 33.82339049 59.23105035 28.4375 57.0625 C23.81137065 55.85305442 19.13548934 54.94721703 14.4375 54.0625 C13.33277344 53.85238281 12.22804687 53.64226562 11.08984375 53.42578125 C-3.61788186 51.12922609 -18.71770802 51.88693386 -33.5625 52.0625 C-28.67442548 46.68561803 -22.07170521 45.46241779 -15.06298828 44.84082031 C-12.4132103 44.72251311 -9.77739675 44.68371221 -7.125 44.6875 C-6.1772168 44.68621094 -5.22943359 44.68492188 -4.25292969 44.68359375 C3.81852927 44.80233136 11.28959038 46.15366106 19.078125 48.1875 C22.18149449 49.14651848 22.18149449 49.14651848 24.4375 49.0625 C22.79728625 48.25925513 21.14992943 47.47059408 19.5 46.6875 C18.58347656 46.24664062 17.66695312 45.80578125 16.72265625 45.3515625 C8.41140341 42.0903099 0.55535069 41.77222902 -8.3125 41.875 C-9.45960449 41.88144531 -10.60670898 41.88789062 -11.78857422 41.89453125 C-19.41477532 41.9638505 -26.97913211 42.20284696 -34.5625 43.0625 C-33.93479981 39.7588148 -32.7390196 37.55206087 -30.83203125 34.796875 C-29.99768555 33.58451172 -29.99768555 33.58451172 -29.14648438 32.34765625 C-28.56189453 31.51105469 -27.97730469 30.67445312 -27.375 29.8125 C-26.80974609 28.99136719 -26.24449219 28.17023437 -25.66210938 27.32421875 C-22.47629391 22.71883603 -19.20568382 18.19606285 -15.80029297 13.75048828 C-14.41053928 11.91531163 -14.41053928 11.91531163 -12.875 9.1875 C-11.5625 7.0625 -11.5625 7.0625 -8.5625 5.0625 C-9.14432277 8.77326375 -10.17151021 11.5302781 -12.03125 14.78515625 C-12.51980469 15.65333984 -13.00835938 16.52152344 -13.51171875 17.41601562 C-14.02347656 18.30998047 -14.53523438 19.20394531 -15.0625 20.125 C-16.07716535 21.90513707 -17.08775187 23.6876068 -18.09375 25.47265625 C-18.54298828 26.25777588 -18.99222656 27.04289551 -19.45507812 27.85180664 C-20.49839624 29.93453273 -21.10342253 31.78753771 -21.5625 34.0625 C-21.06105469 33.90136719 -20.55960938 33.74023438 -20.04296875 33.57421875 C-7.95048666 31.07954922 4.15765214 33.42332807 15.2734375 38.2578125 C17.52134476 39.23676317 17.52134476 39.23676317 20.4375 39.0625 C8.49987964 30.90160467 -2.47314818 29.54281079 -16.5625 30.0625 C-17.5625 27.0625 -17.5625 27.0625 -16.8215332 25.08886719 C-16.42281006 24.35313477 -16.02408691 23.61740234 -15.61328125 22.859375 C-15.17693359 22.04339844 -14.74058594 21.22742188 -14.29101562 20.38671875 C-13.82373047 19.53722656 -13.35644531 18.68773438 -12.875 17.8125 C-12.20307617 16.56146484 -12.20307617 16.56146484 -11.51757812 15.28515625 C-3.31876112 0.08094539 -3.31876112 0.08094539 0 0 Z " fill="#D4946C" transform="translate(43.5625,28.9375)"/>
<path d="M0 0 C0.495 1.98 0.495 1.98 1 4 C-0.32 4 -1.64 4 -3 4 C0.25453957 12.65517005 0.25453957 12.65517005 3.8125 21.1875 C5 24 5 24 5 26 C3.96101563 26.21914063 2.92203125 26.43828125 1.8515625 26.6640625 C-6.68489691 28.56424208 -13.86186464 30.71592577 -21 36 C-21.64324219 36.46277344 -22.28648438 36.92554688 -22.94921875 37.40234375 C-30.74186686 43.50461266 -34.75174503 51.84756393 -38 61 C-40.72814575 59.63592712 -40.71507482 58.35127382 -41.6875 55.5 C-45.39000264 45.92267769 -52.58910811 37.34639463 -61.75390625 32.5625 C-68.63362833 29.54869737 -75.67346221 27.59780877 -83 26 C-82.03176275 21.04988706 -79.5487975 16.70099096 -77.375 12.19140625 C-76.17149407 9.39804164 -75.44742473 6.9921529 -75 4 C-76.32 3.67 -77.64 3.34 -79 3 C-74.6704134 0.8352067 -70.34996054 1.62510436 -65.86328125 2.87109375 C-56.49010827 6.19143958 -49.19943258 10.75249485 -44.09765625 19.46875 C-41.6704005 25.0661227 -40.38111751 31.07431145 -39 37 C-38.70867187 36.03320312 -38.41734375 35.06640625 -38.1171875 34.0703125 C-34.18737051 21.4088366 -30.19628273 11.65251785 -18 5 C-11.93081622 2.14870561 -6.65500446 1.68309503 0 2 C0 1.34 0 0.68 0 0 Z " fill="#FCFCFC" transform="translate(121,25)"/>
<path d="M0 0 C1.1875 1.75 1.1875 1.75 1.1875 5.75 C-0.04613281 5.87955078 -0.04613281 5.87955078 -1.3046875 6.01171875 C-12.47987547 7.41829553 -20.84562902 10.32456056 -28.04296875 19.28125 C-32.7839946 25.93327396 -34.60078561 33.9948823 -36.8125 41.75 C-37.8025 41.255 -37.8025 41.255 -38.8125 40.75 C-39.44186389 38.43835536 -39.98427106 36.14921171 -40.5 33.8125 C-42.73141271 24.76329961 -46.44682447 17.85120326 -54.1875 12.3125 C-61.42020439 7.97287737 -68.47601477 6.41162581 -76.8125 5.75 C-75.9375 0.875 -75.9375 0.875 -74.8125 -0.25 C-64.62385699 -1.37796229 -55.83322865 1.36987494 -47.8125 7.75 C-43.25801678 12.22437924 -40.45149157 16.96451847 -37.8125 22.75 C-37.43738281 22.09773438 -37.06226563 21.44546875 -36.67578125 20.7734375 C-30.66711104 10.51177906 -24.92713105 3.69472695 -13.2734375 -0.0703125 C-3.47551779 -2.39690882 -3.47551779 -2.39690882 0 0 Z " fill="#7FB5BB" transform="translate(119.8125,21.25)"/>
<path d="M0 0 C1.2065625 0.0309375 1.2065625 0.0309375 2.4375 0.0625 C1.91803489 5.68881926 0.37294322 9.95959576 -2.125 15 C-2.45435547 15.68384766 -2.78371094 16.36769531 -3.12304688 17.07226562 C-3.92767039 18.73981871 -4.7438897 20.40176839 -5.5625 22.0625 C-4.83546875 22.14886719 -4.1084375 22.23523438 -3.359375 22.32421875 C4.68246844 23.44801482 14.47805404 25.10305404 20.4375 31.0625 C20.4375 32.3825 20.4375 33.7025 20.4375 35.0625 C19.1175 35.0625 17.7975 35.0625 16.4375 35.0625 C16.4375 34.4025 16.4375 33.7425 16.4375 33.0625 C14.4884375 32.876875 14.4884375 32.876875 12.5 32.6875 C9.33528306 32.34894889 6.38302611 31.82465558 3.3125 31 C-3.1791544 29.43783718 -9.93348383 29.90529013 -16.5625 30.0625 C-17.5625 27.0625 -17.5625 27.0625 -16.8215332 25.08886719 C-16.42281006 24.35313477 -16.02408691 23.61740234 -15.61328125 22.859375 C-15.17693359 22.04339844 -14.74058594 21.22742188 -14.29101562 20.38671875 C-13.82373047 19.53722656 -13.35644531 18.68773438 -12.875 17.8125 C-12.42705078 16.97847656 -11.97910156 16.14445312 -11.51757812 15.28515625 C-3.31876112 0.08094539 -3.31876112 0.08094539 0 0 Z " fill="#DC7E42" transform="translate(43.5625,28.9375)"/>
<path d="M0 0 C4.03159463 1.34386488 5.4354847 4.01382948 7.75 7.375 C8.18884521 8.00043701 8.62769043 8.62587402 9.07983398 9.27026367 C12.43510258 14.0873789 15.6275902 18.99976303 18.72265625 23.98828125 C19.84550518 25.91814257 19.84550518 25.91814257 21 27 C21.04080783 28.99958364 21.04254356 31.00045254 21 33 C19.46460571 32.99214478 19.46460571 32.99214478 17.89819336 32.98413086 C14.07577398 32.96593738 10.25335838 32.95451584 6.4309082 32.94506836 C4.78116206 32.94006081 3.1314203 32.93325284 1.48168945 32.92456055 C-0.89893685 32.91233746 -3.27950413 32.90673578 -5.66015625 32.90234375 C-6.75433617 32.89460182 -6.75433617 32.89460182 -7.87062073 32.88670349 C-12.34941362 32.88622036 -16.58007359 33.26714932 -21 34 C-21 33.01 -21 32.02 -21 31 C-20.030625 30.525625 -19.06125 30.05125 -18.0625 29.5625 C-15.19522563 28.29806053 -15.19522563 28.29806053 -14 27 C-5.84820144 25.7565053 4.09950263 24.36650088 12 27 C9.60329646 18.72047868 5.2223283 11.22924261 0.91796875 3.8125 C0 2 0 2 0 0 Z " fill="#DF7836" transform="translate(130,36)"/>
<path d="M0 0 C0.9485083 0.00088623 1.8970166 0.00177246 2.87426758 0.00268555 C9.32517442 0.10884449 15.45146667 0.7944615 21.75 2.1875 C22.49757568 2.35266113 23.24515137 2.51782227 24.01538086 2.68798828 C30.4651383 4.28969186 30.4651383 4.28969186 32.5625 7.375 C32.5625 8.035 32.5625 8.695 32.5625 9.375 C29.37473289 9.23467508 26.1873615 9.08673356 23 8.9375 C22.10474609 8.89818359 21.20949219 8.85886719 20.28710938 8.81835938 C19.40732422 8.77646484 18.52753906 8.73457031 17.62109375 8.69140625 C16.41924438 8.63641968 16.41924438 8.63641968 15.19311523 8.58032227 C12.5625 8.375 12.5625 8.375 9.2265625 7.86132812 C5.39630045 7.35294046 1.74155657 7.2618311 -2.12109375 7.27734375 C-2.82146255 7.2787587 -3.52183136 7.28017365 -4.24342346 7.28163147 C-6.45399466 7.28717523 -8.66446004 7.29971674 -10.875 7.3125 C-12.38476415 7.31752229 -13.89452991 7.32208391 -15.40429688 7.32617188 C-19.08206493 7.33712613 -22.75977212 7.3543511 -26.4375 7.375 C-19.78276227 0.05478849 -9.26206729 -0.01570542 0 0 Z " fill="#E4762D" transform="translate(36.4375,73.625)"/>
<path d="M0 0 C2.60248618 0.84404957 3.64196906 1.5396745 5.3125 3.6875 C6.33096265 7.11323799 5.86045982 9.55816074 5 13 C2.7844881 16.23805586 1.34895988 16.8984844 -2.4375 18 C-6 18 -6 18 -8.875 16.1875 C-11.7809327 13.1960987 -11.96150202 12.39781245 -12.375 8.125 C-12.32070848 4.80718477 -12.15676121 4.19001359 -9.9375 1.5 C-6.31292985 -0.35084433 -4.02491472 -0.43908161 0 0 Z " fill="#6CB5BE" transform="translate(86,9)"/>
<path d="M0 0 C0.66 0 1.32 0 2 0 C3.16762667 2.09242832 4.33135748 4.18678161 5.48828125 6.28515625 C6.53060463 8.15702899 7.59171318 10.01852269 8.66796875 11.87109375 C9.21066406 12.82113281 9.75335938 13.77117188 10.3125 14.75 C10.82425781 15.63171875 11.33601563 16.5134375 11.86328125 17.421875 C13.08029162 20.18210472 13.23051621 22.01937177 13 25 C11.91203125 24.97679688 10.8240625 24.95359375 9.703125 24.9296875 C-4.90513541 24.7077941 -21.14734831 25.22726075 -33 35 C-33.66 34.67 -34.32 34.34 -35 34 C-23.7777154 23.9942905 -13.11345359 19.80430572 1.9375 19.9375 C2.96327148 19.94426758 2.96327148 19.94426758 4.00976562 19.95117188 C5.67321604 19.9628044 7.3366205 19.98073306 9 20 C8.43410156 18.89140625 7.86820313 17.7828125 7.28515625 16.640625 C6.54405825 15.17719097 5.80318456 13.71364333 5.0625 12.25 C4.68931641 11.52039062 4.31613281 10.79078125 3.93164062 10.0390625 C3.57392578 9.33007812 3.21621094 8.62109375 2.84765625 7.890625 C2.51773682 7.24125977 2.18781738 6.59189453 1.84790039 5.92285156 C0.98547884 3.96706921 0.45625821 2.08459306 0 0 Z " fill="#FAF8F7" transform="translate(129,38)"/>
<path d="M0 0 C0 3 0 3 -2 6 C0.82217501 7.31168513 0.82217501 7.31168513 2.7734375 6.23046875 C3.50820312 5.82441406 4.24296875 5.41835937 5 5 C7.19835356 4.07994832 9.40770075 3.18590569 11.625 2.3125 C12.77226563 1.85488281 13.91953125 1.39726563 15.1015625 0.92578125 C18 0 18 0 20 1 C18.02 1.66 16.04 2.32 14 3 C14 3.99 14 4.98 14 6 C14.93585938 5.67386719 15.87171875 5.34773438 16.8359375 5.01171875 C21.74123723 3.61601192 26.56051821 3.74294489 31.625 3.8125 C33.07737061 3.82216797 33.07737061 3.82216797 34.55908203 3.83203125 C41.7401068 3.90874392 48.85535542 4.24509416 56 5 C56.33 3.68 56.66 2.36 57 1 C60 4.625 60 4.625 60 8 C59.37270996 7.93143799 58.74541992 7.86287598 58.09912109 7.79223633 C50.27030256 7.00171108 42.49082946 6.74920891 34.625 6.6875 C33.40039062 6.65849609 32.17578125 6.62949219 30.9140625 6.59960938 C22.26745356 6.54007234 15.10204685 8.02904836 7 11 C6.01 11.33 5.02 11.66 4 12 C3.34 11.34 2.68 10.68 2 10 C0.32457024 10.28604898 -1.34385343 10.61781233 -3 11 C-3.33 10.67 -3.66 10.34 -4 10 C-5.65 11.65 -7.3 13.3 -9 15 C-8.4887988 10.49656089 -6.82478642 8.12474574 -3.9375 4.6875 C-3.20402344 3.80449219 -2.47054687 2.92148438 -1.71484375 2.01171875 C-1.14894531 1.34785156 -0.58304688 0.68398437 0 0 Z " fill="#D2956D" transform="translate(95,64)"/>
<path d="M0 0 C0.66 0 1.32 0 2 0 C0.10486456 4.97703044 -2.32057738 9.62676615 -4.7578125 14.35546875 C-6.14171769 16.81475018 -6.14171769 16.81475018 -6 19 C-5.05640625 18.96519531 -4.1128125 18.93039063 -3.140625 18.89453125 C9.58338879 18.62625385 20.50124945 20.09842464 31 28 C31.495 28.99 31.495 28.99 32 30 C26.91801628 29.45059635 22.50552201 27.78376722 17.78125 25.9375 C11.42680572 23.79555249 5.25257325 23.87604604 -1.375 23.9375 C-2.76525391 23.94426758 -2.76525391 23.94426758 -4.18359375 23.95117188 C-6.45579709 23.96288426 -8.72786388 23.97928628 -11 24 C-10.54586388 18.02859313 -7.87438331 13.69082073 -4.9375 8.625 C-4.46505859 7.79355469 -3.99261719 6.96210937 -3.50585938 6.10546875 C-2.34522454 4.0655651 -1.17650227 2.03077982 0 0 Z " fill="#FBF9F9" transform="translate(33,39)"/>
<path d="M0 0 C0.78375 0.04125 1.5675 0.0825 2.375 0.125 C2.04922369 7.29207877 -1.27943628 12.89427124 -4.625 19.125 C-5.615 19.125 -6.605 19.125 -7.625 19.125 C-7.625 20.775 -7.625 22.425 -7.625 24.125 C-5.975 24.455 -4.325 24.785 -2.625 25.125 C-2.955 25.785 -3.285 26.445 -3.625 27.125 C-6.925 27.125 -10.225 27.125 -13.625 27.125 C-13.1270163 23.39012223 -12.75008244 21.31262365 -10.625 18.125 C-10.16634531 16.1920981 -9.70842938 14.25901029 -9.2578125 12.32421875 C-7.87702074 7.5255412 -5.60744156 0.26702103 0 0 Z " fill="#E5752E" transform="translate(43.625,28.875)"/>
<path d="M0 0 C5.83906218 0.99691305 8.10307439 4.12772707 11.484375 8.61328125 C14.37093336 13.15886672 15.25021387 16.6204018 15 22 C11.72847271 21.02738378 10.25454871 20.34232413 8.1875 17.5625 C7 15 7 15 7 12 C6.34 12 5.68 12 5 12 C5 12.66 5 13.32 5 14 C2.03 13.01 -0.94 12.02 -4 11 C-4 10.01 -4 9.02 -4 8 C-4.99 7.67 -5.98 7.34 -7 7 C-7 6.67 -7 6.34 -7 6 C-5.741875 5.95875 -4.48375 5.9175 -3.1875 5.875 C-2.47980469 5.85179688 -1.77210937 5.82859375 -1.04296875 5.8046875 C1 6 1 6 4 8 C2.70700306 5.11562221 1.34058637 3.12780579 -1 1 C-0.67 0.67 -0.34 0.34 0 0 Z " fill="#C28E6C" transform="translate(65,64)"/>
<path d="M0 0 C0.66 0 1.32 0 2 0 C2 1.65 2 3.3 2 5 C3.05743408 4.97643433 3.05743408 4.97643433 4.13623047 4.95239258 C7.38240279 4.88938334 10.6284458 4.85080204 13.875 4.8125 C15.53789063 4.77479492 15.53789063 4.77479492 17.234375 4.73632812 C25.0219594 4.66761414 31.96302387 5.48151193 39 9 C39 9.66 39 10.32 39 11 C33.25 11.125 33.25 11.125 31 10 C28.51900266 9.91350549 26.06655072 9.88434946 23.5859375 9.90234375 C22.49147812 9.90446617 22.49147812 9.90446617 21.37490845 9.90663147 C19.04156415 9.91223469 16.70831536 9.92478765 14.375 9.9375 C12.79427222 9.94251459 11.21354293 9.94707757 9.6328125 9.95117188 C5.75517146 9.96220516 1.87760193 9.97947189 -2 10 C-1.85950482 8.52031676 -1.71245174 7.04125484 -1.5625 5.5625 C-1.48128906 4.73878906 -1.40007813 3.91507813 -1.31640625 3.06640625 C-1 1 -1 1 0 0 Z " fill="#E17633" transform="translate(18,59)"/>
<path d="M0 0 C4.03114461 1.34371487 5.4363192 4.01352343 7.75 7.375 C8.18812012 8.00188721 8.62624023 8.62877441 9.07763672 9.2746582 C20 25.00373927 20 25.00373927 20 29 C18.35 28.01 16.7 27.02 15 26 C14.34 26.66 13.68 27.32 13 28 C10.29443359 28.22705078 10.29443359 28.22705078 6.8984375 28.1953125 C5.08085937 28.18564453 5.08085937 28.18564453 3.2265625 28.17578125 C1.95554688 28.15902344 0.68453125 28.14226562 -0.625 28.125 C-1.90375 28.11597656 -3.1825 28.10695313 -4.5 28.09765625 C-7.66685167 28.07402303 -10.83333424 28.04107629 -14 28 C-14 27.67 -14 27.34 -14 27 C4.3902439 24.46341463 4.3902439 24.46341463 12 27 C9.60329646 18.72047868 5.2223283 11.22924261 0.91796875 3.8125 C0 2 0 2 0 0 Z " fill="#CA9F87" transform="translate(130,36)"/>
<path d="M0 0 C2.30078125 -0.2578125 2.30078125 -0.2578125 5 0 C8.99676577 4.05992008 11.59508402 9.52082767 13 15 C12.01 14.67 11.02 14.34 10 14 C10 12.68 10 11.36 10 10 C8.68 10 7.36 10 6 10 C6.28875 10.59167969 6.5775 11.18335938 6.875 11.79296875 C7.24625 12.58316406 7.6175 13.37335937 8 14.1875 C8.37125 14.96480469 8.7425 15.74210937 9.125 16.54296875 C10.06724579 19.18882858 10.1583796 21.21350885 10 24 C9.35675781 24.00257812 8.71351562 24.00515625 8.05078125 24.0078125 C-1.08264819 24.3986868 -9.62691538 27.3304116 -16.6953125 33.26171875 C-17.45585938 33.83535156 -18.21640625 34.40898438 -19 35 C-19.99 34.67 -20.98 34.34 -22 34 C-12.45308501 26.76871971 -4.07805887 22.51395995 8 22 C4.82357312 14.14541725 4.82357312 14.14541725 1.1875 6.5 C0 4 0 4 0 0 Z " fill="#D09F82" transform="translate(118,29)"/>
<path d="M0 0 C1.05058594 0.2784375 2.10117188 0.556875 3.18359375 0.84375 C3.96863281 1.0603125 4.75367188 1.276875 5.5625 1.5 C5.5625 1.83 5.5625 2.16 5.5625 2.5 C4.49721069 2.53758423 4.49721069 2.53758423 3.41040039 2.57592773 C0.14846536 2.69298472 -3.11325722 2.81520746 -6.375 2.9375 C-8.05045898 2.99647461 -8.05045898 2.99647461 -9.75976562 3.05664062 C-15.35209362 3.26983788 -20.86171885 3.61236428 -26.41577148 4.29272461 C-29.61275852 4.62049203 -32.78930568 4.59367179 -36 4.5625 C-37.82724609 4.54896484 -37.82724609 4.54896484 -39.69140625 4.53515625 C-40.59761719 4.52355469 -41.50382812 4.51195313 -42.4375 4.5 C-37.74181468 -0.19568532 -29.73259654 -0.05186434 -23.4375 -0.625 C-22.57382813 -0.71136719 -21.71015625 -0.79773438 -20.8203125 -0.88671875 C-13.59947353 -1.57807567 -7.08048627 -1.90934461 0 0 Z " fill="#E17731" transform="translate(140.4375,76.5)"/>
<path d="M0 0 C5.36437126 5.06635064 8.95846992 9.85464472 11 17 C10.67 17 10.34 17 10 17 C9.74156133 21.15441703 9.74156133 21.15441703 11.0625 25 C12.40931964 27.87321524 11.68598023 29.98168698 11 33 C10.34 32.67 9.68 32.34 9 32 C8.37062374 29.68830996 7.82722518 27.39949333 7.3125 25.0625 C5.00890903 15.56597164 0.21713866 8.56103514 -7 2 C-3.54074837 3.2491742 -0.85306797 4.67527795 2 7 C1.34 4.69 0.68 2.38 0 0 Z " fill="#92B5BE" transform="translate(72,30)"/>
<path d="M0 0 C1.00869141 0.00902344 2.01738281 0.01804687 3.05664062 0.02734375 C5.51718457 0.05066644 7.97720896 0.08339237 10.4375 0.125 C10.4375 0.455 10.4375 0.785 10.4375 1.125 C9.41595825 1.20802368 9.41595825 1.20802368 8.3737793 1.29272461 C5.29052403 1.54547632 2.20777182 1.80392128 -0.875 2.0625 C-1.94685547 2.14951172 -3.01871094 2.23652344 -4.12304688 2.32617188 C-5.66508789 2.45668945 -5.66508789 2.45668945 -7.23828125 2.58984375 C-8.6600769 2.70767212 -8.6600769 2.70767212 -10.1105957 2.82788086 C-12.69520257 3.05823104 -12.69520257 3.05823104 -15.5625 4.125 C-14.45962646 4.154729 -14.45962646 4.154729 -13.33447266 4.18505859 C-9.95183373 4.2812499 -6.56973463 4.39054257 -3.1875 4.5 C-2.03121094 4.5309375 -0.87492187 4.561875 0.31640625 4.59375 C7.21788036 4.82769827 13.72233607 5.49178922 20.4375 7.125 C20.4375 7.455 20.4375 7.785 20.4375 8.125 C19.08345503 8.15263357 17.72923445 8.17167422 16.375 8.1875 C15.62089844 8.19910156 14.86679687 8.21070312 14.08984375 8.22265625 C11.4375 8.125 11.4375 8.125 8.25195312 7.625 C4.36740365 7.11581174 0.67000746 7.01161644 -3.24609375 7.02734375 C-3.94646255 7.0287587 -4.64683136 7.03017365 -5.36842346 7.03163147 C-7.57899466 7.03717523 -9.78946004 7.04971674 -12 7.0625 C-13.50976415 7.06752229 -15.01952991 7.07208391 -16.52929688 7.07617188 C-20.20706493 7.08712613 -23.88477212 7.1043511 -27.5625 7.125 C-20.55111937 -0.58751869 -9.66214496 -0.16625795 0 0 Z " fill="#D3A081" transform="translate(37.5625,73.875)"/>
<path d="M0 0 C1.32 0 2.64 0 4 0 C4.12375 0.639375 4.2475 1.27875 4.375 1.9375 C4.684375 2.9584375 4.684375 2.9584375 5 4 C5.66 4.33 6.32 4.66 7 5 C9.01948977 9.20053871 10.07088439 12.35442193 11 17 C6.71 17 2.42 17 -2 17 C-2 16.01 -2 15.02 -2 14 C-0.02 14 1.96 14 4 14 C3.79503906 13.40832031 3.59007813 12.81664062 3.37890625 12.20703125 C2.0002429 8.16339184 0.68249153 4.23144751 0 0 Z " fill="#E47631" transform="translate(124,39)"/>
<path d="M0 0 C1.32 0.33 2.64 0.66 4 1 C4.12375 2.11375 4.12375 2.11375 4.25 3.25 C5.14910403 6.54671477 6.42369934 7.81404792 9 10 C9.66 10.33 10.32 10.66 11 11 C11.33 9.68 11.66 8.36 12 7 C12.33 7.99 12.66 8.98 13 10 C13.99 8.02 14.98 6.04 16 4 C17.04449911 7.13349732 16.93423645 7.98968256 16 11 C16.66 11.33 17.32 11.66 18 12 C14.8548375 13.57258125 11.43577095 13.36524412 8 13 C6.33042203 12.34065819 4.66416 11.67289948 3 11 C0.57189089 10.4176812 -1.86670228 9.8778743 -4.3125 9.375 C-5.56675781 9.11460938 -6.82101563 8.85421875 -8.11328125 8.5859375 C-9.06589844 8.39257812 -10.01851562 8.19921875 -11 8 C-11 7.67 -11 7.34 -11 7 C-9.741875 6.979375 -8.48375 6.95875 -7.1875 6.9375 C-6.47980469 6.92589844 -5.77210937 6.91429688 -5.04296875 6.90234375 C-3 7 -3 7 0 8 C-0.33 7.01 -0.66 6.02 -1 5 C-0.34 4.67 0.32 4.34 1 4 C0.67 2.68 0.34 1.36 0 0 Z " fill="#CB8F71" transform="translate(69,75)"/>
<path d="M0 0 C0.66 0.66 1.32 1.32 2 2 C0.35369672 1.85957123 -1.29204179 1.71250671 -2.9375 1.5625 C-4.31228516 1.44068359 -4.31228516 1.44068359 -5.71484375 1.31640625 C-8 1 -8 1 -9 0 C-15.92316771 -1.4490351 -22.9597887 -1.08788058 -30 -1 C-30 -0.34 -30 0.32 -30 1 C-36.27 1 -42.54 1 -49 1 C-49 0.67 -49 0.34 -49 0 C-33.82590219 -3.97079195 -14.88661456 -6.19328621 0 0 Z " fill="#DC7838" transform="translate(66,78)"/>
<path d="M0 0 C5.3298045 0.39973534 10.08648475 2.31493869 14 6 C14 7.32 14 8.64 14 10 C12.68 10 11.36 10 10 10 C10 9.34 10 8.68 10 8 C9.236875 7.87625 8.47375 7.7525 7.6875 7.625 C5 7 5 7 2 5 C-0.0492094 4.54860541 -0.0492094 4.54860541 -2.1875 4.375 C-3.445625 4.25125 -4.70375 4.1275 -6 4 C-6.33 3.01 -6.66 2.02 -7 1 C-4.69 1 -2.38 1 0 1 C0 0.67 0 0.34 0 0 Z " fill="#D58A60" transform="translate(50,54)"/>
<path d="M0 0 C12.38716961 -0.46534664 24.33992892 -0.80215049 36 4 C36.99 4.99 37.98 5.98 39 7 C28.11 6.67 17.22 6.34 6 6 C6 5.67 6 5.34 6 5 C13.59 4.67 21.18 4.34 29 4 C21.37999149 2.36552602 21.37999149 2.36552602 13.8671875 1.5859375 C12.6296875 1.52792969 12.6296875 1.52792969 11.3671875 1.46875 C10.54476562 1.4378125 9.72234375 1.406875 8.875 1.375 C8.01390625 1.33632812 7.1528125 1.29765625 6.265625 1.2578125 C4.17737749 1.1650015 2.08871992 1.0814901 0 1 C0 0.67 0 0.34 0 0 Z " fill="#D29F7F" transform="translate(115,74)"/>
<path d="M0 0 C7.54290017 -0.4946164 13.058915 1.09382609 20 4 C19.34 5.32 18.68 6.64 18 8 C17.3709375 7.79503906 16.741875 7.59007812 16.09375 7.37890625 C10.69718181 5.68028765 5.63340386 4.52161147 0 4 C0 2.68 0 1.36 0 0 Z " fill="#6FB1B8" transform="translate(46,22)"/>
<path d="M0 0 C7.89031079 -0.30347349 7.89031079 -0.30347349 11 2 C13.06466502 4.65456931 12.99684937 6.0882176 12.875 9.5 C11.90185747 13.39257014 11.28995572 14.74897767 8 17 C4.5625 18 4.5625 18 1 18 C-1.80189446 16.23358828 -3.51524911 14.96950178 -5 12 C-5.13415472 9.3276379 -5.04318541 6.67749512 -5 4 C-4.34 3.67 -3.68 3.34 -3 3 C-3.06510417 4.98567708 -3.13020833 6.97135417 -3.1953125 8.95703125 C-3.13254462 11.31359719 -3.13254462 11.31359719 -1 14 C1.42521494 14.58189266 1.42521494 14.58189266 4.125 14.6875 C5.49011719 14.78611328 5.49011719 14.78611328 6.8828125 14.88671875 C7.93082031 14.94279297 7.93082031 14.94279297 9 15 C9.16788373 13.37512529 9.33426787 11.75009558 9.5 10.125 C9.5928125 9.22007813 9.685625 8.31515625 9.78125 7.3828125 C10.03047295 5.06686789 10.03047295 5.06686789 10 3 C6.7 2.34 3.4 1.68 0 1 C0 0.67 0 0.34 0 0 Z " fill="#99BBC1" transform="translate(79,9)"/>
<path d="M0 0 C2.55263088 2.274694 3.84144815 4.43202693 5.1875 7.5625 C5.53167969 8.34753906 5.87585938 9.13257813 6.23046875 9.94140625 C7 12 7 12 7 14 C6.38592285 14.03963867 5.7718457 14.07927734 5.13916016 14.12011719 C2.29967068 14.31314915 -0.53736567 14.53144023 -3.375 14.75 C-4.34050781 14.811875 -5.30601563 14.87375 -6.30078125 14.9375 C-12.45160358 15.43286824 -17.41926425 16.66260289 -23.02587891 19.26660156 C-23.67733887 19.50862305 -24.32879883 19.75064453 -25 20 C-25.66 19.67 -26.32 19.34 -27 19 C-16.30859934 13.53491678 -8.02591622 11.80911244 4 12 C3.525625 10.948125 3.05125 9.89625 2.5625 8.8125 C1.30676259 5.89824149 0.47765619 3.15253086 0 0 Z " fill="#D0A487" transform="translate(131,44)"/>
<path d="M0 0 C0 3 0 3 -2 6 C0.84955586 7.33193231 0.84955586 7.33193231 2.875 6.125 C3.57625 5.75375 4.2775 5.3825 5 5 C6.65740715 4.62331656 8.32345271 4.27942455 10 4 C8.68 5.65 7.36 7.3 6 9 C6.99 9.33 7.98 9.66 9 10 C7.35 10.66 5.7 11.32 4 12 C3.34 11.34 2.68 10.68 2 10 C0.32457024 10.28604898 -1.34385343 10.61781233 -3 11 C-3.33 10.67 -3.66 10.34 -4 10 C-5.65 11.65 -7.3 13.3 -9 15 C-8.4887988 10.49656089 -6.82478642 8.12474574 -3.9375 4.6875 C-3.20402344 3.80449219 -2.47054687 2.92148438 -1.71484375 2.01171875 C-1.14894531 1.34785156 -0.58304688 0.68398437 0 0 Z " fill="#C59980" transform="translate(95,64)"/>
<path d="M0 0 C0.66 0.99 1.32 1.98 2 3 C1.01 3.33 0.02 3.66 -1 4 C-1.03738281 4.556875 -1.07476562 5.11375 -1.11328125 5.6875 C-1.59560636 11.28625424 -2.83241879 15.81665364 -5 21 C-7.45622327 18.44143409 -7.99007552 17.09262844 -8.375 13.5 C-7.99013376 9.9079151 -7.57311998 8.47415383 -5 6 C-4.34 6 -3.68 6 -3 6 C-2.690625 5.195625 -2.38125 4.39125 -2.0625 3.5625 C-1 1 -1 1 0 0 Z " fill="#75ABB1" transform="translate(89,36)"/>
<path d="M0 0 C2.30078125 -0.2578125 2.30078125 -0.2578125 5 0 C8.99676577 4.05992008 11.59508402 9.52082767 13 15 C12.01 14.67 11.02 14.34 10 14 C10 12.68 10 11.36 10 10 C9.278125 10.12375 8.55625 10.2475 7.8125 10.375 C5 10 5 10 2.1875 7.25 C0 4 0 4 0 0 Z " fill="#D58355" transform="translate(118,29)"/>
<path d="M0 0 C0.33 0.66 0.66 1.32 1 2 C2.98 1.34 4.96 0.68 7 0 C7 1.32 7 2.64 7 4 C3.83175607 6.44407389 0.93370357 7.43804235 -3 8 C-3 9.32 -3 10.64 -3 12 C-3.99 12.33 -4.98 12.66 -6 13 C-5.63118644 6.85310727 -4.09949571 4.30972626 0 0 Z " fill="#BF8361" transform="translate(91,73)"/>
<path d="M0 0 C1.11375 0.1546875 1.11375 0.1546875 2.25 0.3125 C1.92422369 7.47957877 -1.40443628 13.08177124 -4.75 19.3125 C-5.75 16.3125 -5.75 16.3125 -4.75390625 13.90234375 C-4.27824219 13.02707031 -3.80257812 12.15179688 -3.3125 11.25 C-1.3695006 7.95393463 -1.3695006 7.95393463 -0.75 4.3125 C-1.74 3.9825 -2.73 3.6525 -3.75 3.3125 C-4.018125 4.42625 -4.28625 5.54 -4.5625 6.6875 C-5.75 10.3125 -5.75 10.3125 -8.75 12.3125 C-6.01373626 0.68337912 -6.01373626 0.68337912 0 0 Z " fill="#C69577" transform="translate(43.75,28.6875)"/>
<path d="M0 0 C6.02611596 0.02366276 10.69256483 1.70324733 16.0625 4.3125 C12.30607805 5.56464065 10.86142898 4.45727579 7.3359375 3.015625 C3.60053354 1.86034542 -0.0698764 2.07077352 -3.9375 2.3125 C-3.9375 2.9725 -3.9375 3.6325 -3.9375 4.3125 C-2.86822266 4.47685547 -2.86822266 4.47685547 -1.77734375 4.64453125 C3.93844422 5.59075187 8.85445618 6.76634524 14.0625 9.3125 C13.7325 9.9725 13.4025 10.6325 13.0625 11.3125 C12.37285156 11.03535156 11.68320312 10.75820313 10.97265625 10.47265625 C4.90048129 8.13207852 -0.44323352 6.73835354 -6.9375 6.3125 C-5.94343074 0.77411411 -5.67840762 0.15131802 0 0 Z " fill="#9DBBC1" transform="translate(49.9375,20.6875)"/>
<path d="M0 0 C1.32 0.33 2.64 0.66 4 1 C2.89191046 5.80172134 1.95313492 8.91161335 -2 12 C-2.66 12 -3.32 12 -4 12 C-4.66 12.99 -5.32 13.98 -6 15 C-6.1875 12.125 -6.1875 12.125 -6 9 C-5.01 8.34 -4.02 7.68 -3 7 C-1.92863949 4.69855891 -0.92010283 2.3659787 0 0 Z " fill="#DE7733" transform="translate(40,32)"/>
<path d="M0 0 C0.66 0.33 1.32 0.66 2 1 C1.01 2.485 1.01 2.485 0 4 C2.46278801 5.231394 4.2795055 5.07159196 7 5 C4.12754286 6.91497143 1.22638273 8.77382745 -1.6875 10.625 C-2.68136719 11.25664063 -3.67523438 11.88828125 -4.69921875 12.5390625 C-5.45847656 13.02117188 -6.21773438 13.50328125 -7 14 C-7 11 -7 11 -5.5 9.3125 C-5.005 8.879375 -4.51 8.44625 -4 8 C-3.34 8.33 -2.68 8.66 -2 9 C-2.33 8.01 -2.66 7.02 -3 6 C-4.98 6.33 -6.96 6.66 -9 7 C-6.25604436 4.05278838 -3.61662784 1.80831392 0 0 Z " fill="#8FBBC0" transform="translate(101,23)"/>
<path d="M0 0 C1.32 0.33 2.64 0.66 4 1 C4.33 2.32 4.66 3.64 5 5 C5.66 5 6.32 5 7 5 C8.4216319 8.3171411 9.39009109 11.44219804 10 15 C6.76849539 14.03928241 5.24148827 13.30588515 3.125 10.625 C1.83766175 7.62121076 2.22451556 7.00500219 3 4 C1.6483633 1.75244247 1.6483633 1.75244247 0 0 Z " fill="#AC6C4A" transform="translate(70,71)"/>
<path d="M0 0 C5.34921925 5.34921925 6.17532573 6.57793161 7 14 C6.01 13.67 5.02 13.34 4 13 C4 12.34 4 11.68 4 11 C3.01 11 2.02 11 1 11 C-0.3927289 9.38263741 -1.71937515 7.7074998 -3 6 C-4.31494512 4.64852862 -5.64264858 3.30887458 -7 2 C-3.54074837 3.2491742 -0.85306797 4.67527795 2 7 C1.34 4.69 0.68 2.38 0 0 Z " fill="#8BBBC0" transform="translate(72,30)"/>
<path d="M0 0 C-1.98 0.66 -3.96 1.32 -6 2 C-6 2.99 -6 3.98 -6 5 C-4.68 5.33 -3.36 5.66 -2 6 C-6.17737474 7.59138085 -9.53160785 8.21278058 -14 8 C-12.73615515 4.20846545 -11.26434102 3.24876826 -8 1 C-2.51612903 -1.25806452 -2.51612903 -1.25806452 0 0 Z " fill="#D38C5F" transform="translate(115,65)"/>
<path d="M0 0 C2.1490452 0.42144002 4.29422788 0.86262049 6.4375 1.3125 C8.22994141 1.67794922 8.22994141 1.67794922 10.05859375 2.05078125 C11.02925781 2.36402344 11.99992187 2.67726563 13 3 C13.33 3.99 13.66 4.98 14 6 C7.73 5.34 1.46 4.68 -5 4 C-2 2 -2 2 0 2 C0 1.34 0 0.68 0 0 Z " fill="#E0783A" transform="translate(55,77)"/>
<path d="M0 0 C0.556875 0.226875 1.11375 0.45375 1.6875 0.6875 C0.6028444 3.9414668 0.05309948 4.46534877 -2.625 6.375 C-3.21925781 6.81199219 -3.81351562 7.24898438 -4.42578125 7.69921875 C-6.3125 8.6875 -6.3125 8.6875 -10.3125 8.6875 C-5.59098101 -0.75553797 -5.59098101 -0.75553797 0 0 Z " fill="#D18050" transform="translate(103.3125,61.3125)"/>
<path d="M0 0 C0.33 0.99 0.66 1.98 1 3 C2.0621875 2.98839844 3.124375 2.97679687 4.21875 2.96484375 C23.71713586 2.80811914 23.71713586 2.80811914 27.203125 6.046875 C27.79609375 6.69140625 28.3890625 7.3359375 29 8 C28.16339844 7.7834375 27.32679687 7.566875 26.46484375 7.34375 C17.38529952 5.17189889 9.30686879 4.64805958 0 5 C-0.33 4.01 -0.66 3.02 -1 2 C-0.67 1.34 -0.34 0.68 0 0 Z " fill="#D3AA90" transform="translate(27,54)"/>
<path d="M0 0 C1 3 1 3 -0.43359375 6.13671875 C-1.09135973 7.3260128 -1.75977815 8.50946371 -2.4375 9.6875 C-2.77587891 10.29400391 -3.11425781 10.90050781 -3.46289062 11.52539062 C-4.29957915 13.0220025 -5.14862831 14.51169189 -6 16 C-6.33 15.34 -6.66 14.68 -7 14 C-7.66 14 -8.32 14 -9 14 C-7.34966761 8.71893635 -3.90667286 3.90667286 0 0 Z " fill="#C09E8E" transform="translate(34,34)"/>
<path d="M0 0 C6.32278971 0.32626495 11.55464391 0.61504892 17 4 C13.34606463 5.26823485 10.50929974 4.75715321 6.75 4.0625 C5.67234375 3.86785156 4.5946875 3.67320313 3.484375 3.47265625 C2.66453125 3.31667969 1.8446875 3.16070312 1 3 C0.67 2.01 0.34 1.02 0 0 Z " fill="#DF7736" transform="translate(43,55)"/>
<path d="M0 0 C2.95562064 0.20151959 5.07037079 0.96252665 7.75 2.1875 C4.63089144 3.98025866 2.07317572 4.53040718 -1.5 4.8125 C-2.39203125 4.88726563 -3.2840625 4.96203125 -4.203125 5.0390625 C-4.87859375 5.08804687 -5.5540625 5.13703125 -6.25 5.1875 C-6.91 4.1975 -7.57 3.2075 -8.25 2.1875 C-7.0434375 1.9709375 -7.0434375 1.9709375 -5.8125 1.75 C-3.18113385 1.17238304 -2.60691737 0.21724311 0 0 Z " fill="#76B5BD" transform="translate(108.25,23.8125)"/>
<path d="M0 0 C0.66 0 1.32 0 2 0 C0.51546229 3.83564767 -1.14573366 7.54792807 -2.9375 11.25 C-3.44152344 12.30703125 -3.94554687 13.3640625 -4.46484375 14.453125 C-6 17 -6 17 -9 18 C-7.45614871 13.85967154 -5.48971062 10.06446947 -3.375 6.1875 C-3.05015625 5.59001953 -2.7253125 4.99253906 -2.390625 4.37695312 C-1.59620849 2.91662865 -0.79844624 1.45812509 0 0 Z " fill="#EAE3E0" transform="translate(33,39)"/>
<path d="M0 0 C0.66 0 1.32 0 2 0 C4.99931115 5.22804829 7.74007974 10.40967094 10 16 C9.34 16.66 8.68 17.32 8 18 C6.66180502 15.3773768 5.3292849 12.75213401 4 10.125 C3.6184375 9.37863281 3.236875 8.63226563 2.84375 7.86328125 C2.4828125 7.14785156 2.121875 6.43242188 1.75 5.6953125 C1.41484375 5.03547363 1.0796875 4.37563477 0.734375 3.69580078 C0 2 0 2 0 0 Z " fill="#E9E1DE" transform="translate(129,38)"/>
<path d="M0 0 C4.74908547 2.80627778 7.19372222 5.25091453 10 10 C9.67 10.66 9.34 11.32 9 12 C5.38274895 10.09618366 3.47021272 8.84517172 2 5 C1.62875 4.0925 1.2575 3.185 0.875 2.25 C0.58625 1.5075 0.2975 0.765 0 0 Z " fill="#D5916A" transform="translate(141,53)"/>
<path d="M0 0 C1.95979427 0.28168297 3.91782378 0.57566717 5.875 0.875 C6.96554688 1.03742188 8.05609375 1.19984375 9.1796875 1.3671875 C12 2 12 2 14 4 C7.73 4 1.46 4 -5 4 C-5 3.67 -5 3.34 -5 3 C-3.02 2.67 -1.04 2.34 1 2 C0.67 1.34 0.34 0.68 0 0 Z " fill="#DC7D40" transform="translate(132,75)"/>
<path d="M0 0 C1.65 1.65 3.3 3.3 5 5 C3.68 5.33 2.36 5.66 1 6 C1.99 6.99 2.98 7.98 4 9 C-0.30764815 7.43358249 -4.06171464 5.31663844 -8 3 C-6.68 2.67 -5.36 2.34 -4 2 C-4 2.66 -4 3.32 -4 4 C-2.68 4 -1.36 4 0 4 C0 2.68 0 1.36 0 0 Z " fill="#CA977A" transform="translate(64,60)"/>
<path d="M0 0 C0.598125 0.165 1.19625 0.33 1.8125 0.5 C4.25988354 1.05940195 5.63996734 0.75858193 8 0 C8 0.66 8 1.32 8 2 C7.01 2.33 6.02 2.66 5 3 C5.99 3.66 6.98 4.32 8 5 C4.7 5.33 1.4 5.66 -2 6 C-1.01 4.68 -0.02 3.36 1 2 C0.34 1.67 -0.32 1.34 -1 1 C-0.67 0.67 -0.34 0.34 0 0 Z " fill="#C89072" transform="translate(88,80)"/>
<path d="M0 0 C6.0546875 -0.1953125 6.0546875 -0.1953125 8 0 C10 2 10 2 10 5 C7.69 4.67 5.38 4.34 3 4 C3 3.34 3 2.68 3 2 C2.01 1.67 1.02 1.34 0 1 C0 0.67 0 0.34 0 0 Z " fill="#D07D49" transform="translate(58,70)"/>
<path d="M0 0 C0.99 0 1.98 0 3 0 C2.37321829 3.66172475 1.35548154 6.8818995 -0.0625 10.3125 C-0.42472656 11.19550781 -0.78695313 12.07851563 -1.16015625 12.98828125 C-1.43730469 13.65214844 -1.71445312 14.31601562 -2 15 C-2.33 15 -2.66 15 -3 15 C-2.835 13.906875 -2.67 12.81375 -2.5 11.6875 C-1.93281816 8.12474127 -1.93281816 8.12474127 -2 5 C-1.22222222 1.22222222 -1.22222222 1.22222222 0 0 Z " fill="#C7997A" transform="translate(24,48)"/>
<path d="M0 0 C7.11484687 0.3856646 13.35441866 1.39099399 20 4 C16.28523623 5.23825459 13.81171187 4.70587257 10 4 C9.67 3.67 9.34 3.34 9 3 C7.48834346 2.60851239 5.96530368 2.26027543 4.4375 1.9375 C3.61121094 1.76089844 2.78492188 1.58429688 1.93359375 1.40234375 C1.29550781 1.26957031 0.65742187 1.13679688 0 1 C0 0.67 0 0.34 0 0 Z " fill="#D4966D" transform="translate(48,75)"/>
<path d="M0 0 C1.23556641 0.01740234 1.23556641 0.01740234 2.49609375 0.03515625 C3.32238281 0.04417969 4.14867187 0.05320312 5 0.0625 C5.63808594 0.07410156 6.27617187 0.08570312 6.93359375 0.09765625 C6.93359375 1.41765625 6.93359375 2.73765625 6.93359375 4.09765625 C0.30859375 3.34765625 0.30859375 3.34765625 -3.06640625 1.09765625 C-2.06640625 0.09765625 -2.06640625 0.09765625 0 0 Z " fill="#E7742A" transform="translate(142.06640625,64.90234375)"/>
<path d="M0 0 C0.99 0.33 1.98 0.66 3 1 C3.6875 3.0625 3.6875 3.0625 4 5 C3.34 5 2.68 5 2 5 C2.99 6.485 2.99 6.485 4 8 C4.125 10.6875 4.125 10.6875 4 13 C3.7525 12.46375 3.505 11.9275 3.25 11.375 C1.70303025 8.43575748 -0.13014369 5.74245592 -2 3 C-1.34 2.01 -0.68 1.02 0 0 Z " fill="#CC987B" transform="translate(140,50)"/>
<path d="M0 0 C1.875 0.3125 1.875 0.3125 4 1 C4.66 1.99 5.32 2.98 6 4 C4.68 4 3.36 4 2 4 C2 4.66 2 5.32 2 6 C-0.97 5.01 -3.94 4.02 -7 3 C-3 2 -3 2 0 3 C0 2.01 0 1.02 0 0 Z " fill="#BE937B" transform="translate(68,72)"/>
<path d="M0 0 C2.35170044 2.13790949 3.88791835 4.00593401 5 7 C5.125 10.25 5.125 10.25 5 13 C1.7 13 -1.6 13 -5 13 C-5 12.67 -5 12.34 -5 12 C-2.03 12 0.94 12 4 12 C3.2884375 10.4221875 3.2884375 10.4221875 2.5625 8.8125 C1.30676259 5.89824149 0.47765619 3.15253086 0 0 Z " fill="#CD8B5F" transform="translate(131,44)"/>
<path d="M0 0 C0.66 0.33 1.32 0.66 2 1 C0.68 2.32 -0.64 3.64 -2 5 C-1.01 5.33 -0.02 5.66 1 6 C-0.65 6.66 -2.3 7.32 -4 8 C-6 6 -6 6 -7 4 C-1.7265625 0.77734375 -1.7265625 0.77734375 0 0 Z " fill="#CF9572" transform="translate(103,68)"/>
<path d="M0 0 C1.04449911 3.13349732 0.93423645 3.98968256 0 7 C0.66 7.33 1.32 7.66 2 8 C-1.21451269 9.60725635 -4.43612536 9.05748185 -8 9 C-7.38125 8.938125 -6.7625 8.87625 -6.125 8.8125 C-3.75320779 8.18624774 -3.75320779 8.18624774 -2.875 5.625 C-2.441875 4.325625 -2.441875 4.325625 -2 3 C-1.34 2.01 -0.68 1.02 0 0 Z " fill="#C8B1A5" transform="translate(85,79)"/>
<path d="M0 0 C0.33 0 0.66 0 1 0 C1 1.65 1 3.3 1 5 C-4.0302076 4.47462276 -9.01885239 3.89405214 -14 3 C-14 2.67 -14 2.34 -14 2 C-8.0819503 0.67145823 -5.22270869 1.33535271 0 4 C0 2.68 0 1.36 0 0 Z " fill="#C99C83" transform="translate(80,82)"/>
<path d="M0 0 C0.66 0 1.32 0 2 0 C2 0.99 2 1.98 2 3 C7.94 3.99 7.94 3.99 14 5 C10.32266781 5.91933305 8.40100462 5.99485581 4.75 5.5625 C3.85796875 5.46066406 2.9659375 5.35882813 2.046875 5.25390625 C1.37140625 5.17011719 0.6959375 5.08632813 0 5 C0 3.35 0 1.7 0 0 Z " fill="#D09A79" transform="translate(36,48)"/>
<path d="M0 0 C2.375 -0.125 2.375 -0.125 5 0 C7 2 7 2 7 5 C4.36 4.67 1.72 4.34 -1 4 C-0.01 3.67 0.98 3.34 2 3 C2 2.34 2 1.68 2 1 C1.34 0.67 0.68 0.34 0 0 Z " fill="#76ACAD" transform="translate(113,22)"/>
<path d="M0 0 C0.82638376 2.89234315 1 4.88742431 1 8 C0.01 8 -0.98 8 -2 8 C-2.66 8.99 -3.32 9.98 -4 11 C-4.1875 8.125 -4.1875 8.125 -4 5 C-3.01 4.34 -2.02 3.68 -1 3 C-0.67 2.01 -0.34 1.02 0 0 Z " fill="#DA7C3E" transform="translate(38,36)"/>
<path d="M0 0 C7 8.20689655 7 8.20689655 7 13 C6.01 12.67 5.02 12.34 4 12 C3.67 10.02 3.34 8.04 3 6 C2.34 6 1.68 6 1 6 C0.67 4.02 0.34 2.04 0 0 Z " fill="#CE936E" transform="translate(124,31)"/>
<path d="M0 0 C0.33 0 0.66 0 1 0 C1.61528766 5.07612318 -0.38341651 7.82982006 -3 12 C-3.66 12 -4.32 12 -5 12 C-3.68938409 7.76570244 -2.05643741 3.92592596 0 0 Z " fill="#CB9676" transform="translate(33,42)"/>
<path d="M0 0 C0 0.66 0 1.32 0 2 C1.65 2 3.3 2 5 2 C5 2.33 5 2.66 5 3 C0.05 3 -4.9 3 -10 3 C-10 2.67 -10 2.34 -10 2 C-8.7090864 1.66376204 -7.41723903 1.33110751 -6.125 1 C-5.40570312 0.814375 -4.68640625 0.62875 -3.9453125 0.4375 C-2 0 -2 0 0 0 Z " fill="#D77B41" transform="translate(27,76)"/>
<path d="M0 0 C2 1.8125 2 1.8125 4 4 C4 4.99 4 5.98 4 7 C0.37 6.67 -3.26 6.34 -7 6 C-7 5.67 -7 5.34 -7 5 C-4.03 5 -1.06 5 2 5 C1.34 3.35 0.68 1.7 0 0 Z " fill="#D6B6A2" transform="translate(151,65)"/>
<path d="M0 0 C0.33 0.66 0.66 1.32 1 2 C4.63 2 8.26 2 12 2 C12 2.33 12 2.66 12 3 C5.565 3.495 5.565 3.495 -1 4 C-0.67 2.68 -0.34 1.36 0 0 Z " fill="#D7BAAA" transform="translate(10,68)"/>
<path d="M0 0 C0.66 0.33 1.32 0.66 2 1 C0.88424427 4.34726719 0.48655378 4.62079748 -2.4375 6.25 C-4.2009375 7.11625 -4.2009375 7.11625 -6 8 C-6.66 7.67 -7.32 7.34 -8 7 C-5.36 4.69 -2.72 2.38 0 0 Z " fill="#E8DEDB" transform="translate(102,65)"/>
<path d="M0 0 C0.33 0.66 0.66 1.32 1 2 C-0.21484375 4.3828125 -0.21484375 4.3828125 -1.9375 7.125 C-2.50339844 8.03507812 -3.06929688 8.94515625 -3.65234375 9.8828125 C-4.09707031 10.58148438 -4.54179688 11.28015625 -5 12 C-5.66 11.67 -6.32 11.34 -7 11 C-6.02262231 9.35310365 -5.0430468 7.70751146 -4.0625 6.0625 C-3.51722656 5.14597656 -2.97195312 4.22945312 -2.41015625 3.28515625 C-1 1 -1 1 0 0 Z " fill="#9DBEC3" transform="translate(91,30)"/>
<path d="M0 0 C0.66 0 1.32 0 2 0 C2 4 2 4 1 7 C0.01 7.33 -0.98 7.66 -2 8 C-1.125 1.125 -1.125 1.125 0 0 Z " fill="#A26444" transform="translate(87,78)"/>
<path d="M0 0 C0 0.66 0 1.32 0 2 C-3.63 1.67 -7.26 1.34 -11 1 C-11 0.67 -11 0.34 -11 0 C-6.53464227 -1.86921951 -4.33629181 -2.2956839 0 0 Z " fill="#D87D42" transform="translate(69,81)"/>
<path d="M0 0 C1.5625 1.625 1.5625 1.625 3 4 C2.6875 7.25 2.6875 7.25 2 10 C1.34 9.67 0.68 9.34 0 9 C0 6.03 0 3.06 0 0 Z " fill="#95ADB1" transform="translate(81,53)"/>
<path d="M0 0 C0.99 0 1.98 0 3 0 C5 2 5 2 5.125 4.625 C5.08375 5.40875 5.0425 6.1925 5 7 C4.67 6.34 4.34 5.68 4 5 C1.98330173 3.86649466 1.98330173 3.86649466 0 3 C0 2.01 0 1.02 0 0 Z " fill="#68B5B5" transform="translate(70,32)"/>
<path d="M0 0 C0.33 0.66 0.66 1.32 1 2 C0.33333333 3.33333333 -0.33333333 4.66666667 -1 6 C-1.38290462 7.99110401 -1.72604615 9.99100513 -2 12 C-2.33 12 -2.66 12 -3 12 C-3.75 8.8125 -3.75 8.8125 -4 5 C-2.0625 2.0625 -2.0625 2.0625 0 0 Z " fill="#CD804D" transform="translate(23,52)"/>
<path d="M0 0 C3.73639216 1.24546405 4.18756513 2.63404953 6 6 C5.01 6.33 4.02 6.66 3 7 C0 2.25 0 2.25 0 0 Z " fill="#C2A99E" transform="translate(130,36)"/>
<path d="M0 0 C-0.33 0.99 -0.66 1.98 -1 3 C-3.31 3 -5.62 3 -8 3 C-8 2.34 -8 1.68 -8 1 C-2.25 0 -2.25 0 0 0 Z " fill="#E37836" transform="translate(118,55)"/>
<path d="M0 0 C0.66 0 1.32 0 2 0 C1.67 1.65 1.34 3.3 1 5 C-1.31 4.34 -3.62 3.68 -6 3 C-5.01 2.67 -4.02 2.34 -3 2 C-1.05270463 1.15811388 -1.05270463 1.15811388 0 0 Z " fill="#69ADB8" transform="translate(87,19)"/>
</svg>
