<?xml version="1.0" encoding="UTF-8"?>
<svg version="1.1" xmlns="http://www.w3.org/2000/svg" width="200" height="200">
<path d="M0 0 C66 0 132 0 200 0 C200 66 200 132 200 200 C134 200 68 200 0 200 C0 134 0 68 0 0 Z " fill="#1E1F24" transform="translate(0,0)"/>
<path d="M0 0 C9.11234507 0.13017636 16.45201036 3.29914035 22.98046875 9.6015625 C23.52316406 10.16617188 24.06585938 10.73078125 24.625 11.3125 C25.3675 12.075625 26.11 12.83875 26.875 13.625 C29.45443879 17.58628101 31.00900512 21.88570552 32.625 26.3125 C32.83253906 25.61125 33.04007812 24.91 33.25390625 24.1875 C36.6817878 13.63134594 41.7328841 7.96668352 51.29296875 2.44140625 C55.41973207 0.44369335 58.80463621 0.19559091 63.375 0.25 C64.35984375 0.25902344 65.3446875 0.26804688 66.359375 0.27734375 C67.48085937 0.29474609 67.48085937 0.29474609 68.625 0.3125 C69.615 2.2925 70.605 4.2725 71.625 6.3125 C70.94695312 6.33828125 70.26890625 6.3640625 69.5703125 6.390625 C60.16701321 6.96367925 50.4756753 9.41145208 43.625 16.3125 C37.19603913 25.09167062 34.26502333 33.5424522 33.625 44.3125 C34.945 43.6525 36.265 42.9925 37.625 42.3125 C38.12 45.2825 38.12 45.2825 38.625 48.3125 C39.285 48.3125 39.945 48.3125 40.625 48.3125 C40.625 47.3225 40.625 46.3325 40.625 45.3125 C41.3675 45.05082031 42.11 44.78914063 42.875 44.51953125 C45.65019948 43.30143943 47.36518108 41.99058268 49.625 40 C57.78156432 33.50193709 66.33865548 30.88390231 76.625 31.3125 C76.17060547 30.36612671 76.17060547 30.36612671 75.70703125 29.40063477 C74.34435246 26.55971155 72.98463851 23.71737943 71.625 20.875 C71.14804688 19.88177734 70.67109375 18.88855469 70.1796875 17.86523438 C69.50292969 16.44887695 69.50292969 16.44887695 68.8125 15.00390625 C68.39355469 14.12935791 67.97460938 13.25480957 67.54296875 12.35375977 C66.625 10.3125 66.625 10.3125 66.625 9.3125 C68.935 9.3125 71.245 9.3125 73.625 9.3125 C75.42765673 12.66086963 77.21509135 16.01714061 79 19.375 C79.76183594 20.78942383 79.76183594 20.78942383 80.5390625 22.23242188 C83.17360201 27.20684845 85.36014609 31.81876706 86.625 37.3125 C85.40425781 37.32667969 84.18351562 37.34085938 82.92578125 37.35546875 C66.06115279 37.75410286 52.90842163 41.72662479 40.765625 54.2265625 C39.26215747 55.96527216 39.26215747 55.96527216 37.625 58.3125 C38.346875 57.735 39.06875 57.1575 39.8125 56.5625 C40.740625 55.82 41.66875 55.0775 42.625 54.3125 C43.77355469 53.34957031 43.77355469 53.34957031 44.9453125 52.3671875 C47.64474316 50.29736166 50.28475889 48.73168839 53.3125 47.1875 C54.74142578 46.44113281 54.74142578 46.44113281 56.19921875 45.6796875 C64.58436092 42.33327956 72.81242981 42.03967759 81.75 42.1875 C83.3278125 42.20103516 83.3278125 42.20103516 84.9375 42.21484375 C87.50024878 42.23814147 90.06249512 42.27084888 92.625 42.3125 C92.11710938 41.36890625 91.60921875 40.4253125 91.0859375 39.453125 C88.91722437 35.41419397 86.76700411 31.36565102 84.625 27.3125 C84.30031738 26.70003418 83.97563477 26.08756836 83.64111328 25.45654297 C82.77239734 23.80916936 81.9170318 22.15477569 81.0625 20.5 C80.31806641 19.06720703 80.31806641 19.06720703 79.55859375 17.60546875 C79.25050781 16.84878906 78.94242187 16.09210937 78.625 15.3125 C78.955 14.6525 79.285 13.9925 79.625 13.3125 C84.0694968 19.59035173 88.39104477 25.93770938 92.63671875 32.3515625 C95.04678091 35.94061382 97.54835676 39.45832811 100.08203125 42.9609375 C101.84217734 45.64348926 103.23808436 48.42205118 104.625 51.3125 C103.4390625 51.168125 102.253125 51.02375 101.03125 50.875 C80.08536136 48.42307458 60.15336972 47.58568372 41.625 59.3125 C41.13 60.3025 41.13 60.3025 40.625 61.3125 C41.26824219 60.98636719 41.91148438 60.66023438 42.57421875 60.32421875 C61.01737526 51.40520297 80.33003978 50.90228544 99.625 57.3125 C101.98577897 58.26129408 104.30173601 59.27298829 106.625 60.3125 C103.53742374 61.34169209 102.43675109 61.28918059 99.3125 60.875 C79.551803 58.88584375 60.02153863 60.13745422 40.9543457 65.63549805 C34.26739602 67.55024447 30.28403726 67.5953728 23.625 65.3125 C20.41295294 64.53817367 17.17801805 63.89321226 13.9375 63.25 C13.10283203 63.07662109 12.26816406 62.90324219 11.40820312 62.72460938 C0.95217302 60.63019352 -9.3551848 60.14865031 -20 60.1875 C-21.06734375 60.18363281 -22.1346875 60.17976563 -23.234375 60.17578125 C-29.36473049 60.1833124 -35.29686689 60.5097277 -41.375 61.3125 C-38.40241249 58.87023327 -35.61827468 57.47467335 -32 56.1875 C-31.08476563 55.85492188 -30.16953125 55.52234375 -29.2265625 55.1796875 C-12.08002669 49.96526154 8.56261466 53.19360069 24.375 61.0625 C25.1175 61.475 25.86 61.8875 26.625 62.3125 C17.13876222 53.97263537 5.61352691 50.19238129 -6.91796875 50.1796875 C-8.77711914 50.17775391 -8.77711914 50.17775391 -10.67382812 50.17578125 C-12.5987207 50.18158203 -12.5987207 50.18158203 -14.5625 50.1875 C-16.45838867 50.18169922 -16.45838867 50.18169922 -18.39257812 50.17578125 C-25.77700748 50.18342163 -33.03647538 50.47820962 -40.375 51.3125 C-38.17990867 47.27353196 -35.83726838 43.4760159 -33.17578125 39.7265625 C-29.41567793 34.38859807 -25.7539747 28.9902522 -22.125 23.5625 C-21.20847656 22.20318359 -21.20847656 22.20318359 -20.2734375 20.81640625 C-17.83660711 17.17180185 -15.55380749 13.68471151 -13.65234375 9.7265625 C-13.23082031 8.92992187 -12.80929688 8.13328125 -12.375 7.3125 C-9.1875 6.4375 -9.1875 6.4375 -6.375 6.3125 C-6.230625 5.508125 -6.08625 4.70375 -5.9375 3.875 C-5.04654793 -0.18378167 -3.91337055 0.11727767 0 0 Z " fill="#1D1F25" transform="translate(68.375,40.6875)"/>
<path d="M0 0 C2.31 0 4.62 0 7 0 C8.80265673 3.34836963 10.59009135 6.70464061 12.375 10.0625 C12.88289063 11.00544922 13.39078125 11.94839844 13.9140625 12.91992188 C16.54860201 17.89434845 18.73514609 22.50626706 20 28 C18.77925781 28.01417969 17.55851562 28.02835938 16.30078125 28.04296875 C-0.56384721 28.44160286 -13.71657837 32.41412479 -25.859375 44.9140625 C-27.36284253 46.65277216 -27.36284253 46.65277216 -29 49 C-28.278125 48.4225 -27.55625 47.845 -26.8125 47.25 C-25.884375 46.5075 -24.95625 45.765 -24 45 C-22.85144531 44.03707031 -22.85144531 44.03707031 -21.6796875 43.0546875 C-18.98025684 40.98486166 -16.34024111 39.41918839 -13.3125 37.875 C-11.88357422 37.12863281 -11.88357422 37.12863281 -10.42578125 36.3671875 C-2.04063908 33.02077956 6.18742981 32.72717759 15.125 32.875 C16.7028125 32.88853516 16.7028125 32.88853516 18.3125 32.90234375 C20.87524878 32.92564147 23.43749512 32.95834888 26 33 C25.49210938 32.05640625 24.98421875 31.1128125 24.4609375 30.140625 C22.29222437 26.10169397 20.14200411 22.05315102 18 18 C17.67531738 17.38753418 17.35063477 16.77506836 17.01611328 16.14404297 C16.14739734 14.49666936 15.2920318 12.84227569 14.4375 11.1875 C13.69306641 9.75470703 13.69306641 9.75470703 12.93359375 8.29296875 C12.62550781 7.53628906 12.31742187 6.77960937 12 6 C12.33 5.34 12.66 4.68 13 4 C17.4444968 10.27785173 21.76604477 16.62520938 26.01171875 23.0390625 C28.42178091 26.62811382 30.92335676 30.14582811 33.45703125 33.6484375 C35.21717734 36.33098926 36.61308436 39.10955118 38 42 C36.8140625 41.855625 35.628125 41.71125 34.40625 41.5625 C13.46036136 39.11057458 -6.47163028 38.27318372 -25 50 C-25.495 50.99 -25.495 50.99 -26 52 C-25.35675781 51.67386719 -24.71351562 51.34773438 -24.05078125 51.01171875 C-5.60762474 42.09270297 13.70503978 41.58978544 33 48 C35.36077897 48.94879408 37.67673601 49.96048829 40 51 C36.91242374 52.02919209 35.81175109 51.97668059 32.6875 51.5625 C12.926803 49.57334375 -6.60346137 50.82495422 -25.6706543 56.32299805 C-32.35760398 58.23774447 -36.34096274 58.2828728 -43 56 C-46.21204706 55.22567367 -49.44698195 54.58071226 -52.6875 53.9375 C-53.52216797 53.76412109 -54.35683594 53.59074219 -55.21679688 53.41210938 C-65.67282698 51.31769352 -75.9801848 50.83615031 -86.625 50.875 C-87.69234375 50.87113281 -88.7596875 50.86726563 -89.859375 50.86328125 C-95.98973049 50.8708124 -101.92186689 51.1972277 -108 52 C-105.02741249 49.55773327 -102.24327468 48.16217335 -98.625 46.875 C-97.70976563 46.54242188 -96.79453125 46.20984375 -95.8515625 45.8671875 C-78.70502669 40.65276154 -58.06238534 43.88110069 -42.25 51.75 C-41.5075 52.1625 -40.765 52.575 -40 53 C-49.48623778 44.66013537 -61.01147309 40.87988129 -73.54296875 40.8671875 C-75.40211914 40.86525391 -75.40211914 40.86525391 -77.29882812 40.86328125 C-79.2237207 40.86908203 -79.2237207 40.86908203 -81.1875 40.875 C-83.08338867 40.86919922 -83.08338867 40.86919922 -85.01757812 40.86328125 C-92.40200748 40.87092163 -99.66147538 41.16570962 -107 42 C-104.81653689 37.98242789 -102.4891584 34.19961319 -99.84375 30.46875 C-95.85706502 24.81093406 -91.95529541 19.09767666 -88.0625 13.375 C-87.37865234 12.37082031 -86.69480469 11.36664063 -85.99023438 10.33203125 C-84.32624635 7.88841247 -82.6628443 5.44439715 -81 3 C-80.67 3.66 -80.34 4.32 -80 5 C-81.17163086 7.70556641 -81.17163086 7.70556641 -82.96484375 11.1015625 C-83.43308311 11.99625748 -83.43308311 11.99625748 -83.91078186 12.9090271 C-84.91224257 14.81837656 -85.92469588 16.72164741 -86.9375 18.625 C-87.617267 19.91628235 -88.29631301 21.20794453 -88.97460938 22.5 C-90.64138745 25.67112108 -92.3180745 28.83688172 -94 32 C-93.38705078 32.00410889 -92.77410156 32.00821777 -92.14257812 32.01245117 C-75.26682177 32.20967159 -59.68120206 33.0429311 -46 44 C-45.030625 44.721875 -44.06125 45.44375 -43.0625 46.1875 C-41 48 -41 48 -39 51 C-38.01 51 -37.02 51 -36 51 C-35.34 51.99 -34.68 52.98 -34 54 C-33.58041016 53.07380859 -33.58041016 53.07380859 -33.15234375 52.12890625 C-26.41969697 37.90591933 -17.15691165 28.53847279 -2.37109375 22.8125 C1.82223306 21.80182564 5.71127457 21.82693668 10 22 C9.54560547 21.05362671 9.54560547 21.05362671 9.08203125 20.08813477 C7.71935246 17.24721155 6.35963851 14.40487943 5 11.5625 C4.52304688 10.56927734 4.04609375 9.57605469 3.5546875 8.55273438 C3.10351562 7.60849609 2.65234375 6.66425781 2.1875 5.69140625 C1.76855469 4.81685791 1.34960938 3.94230957 0.91796875 3.04125977 C0 1 0 1 0 0 Z " fill="#D77130" transform="translate(135,50)"/>
<path d="M0 0 C0.78117187 0.01804688 1.56234375 0.03609375 2.3671875 0.0546875 C2.94726562 0.07789063 3.52734375 0.10109375 4.125 0.125 C-0.375 4.125 -0.375 4.125 -4.875 4.125 C-3.885 5.61 -3.885 5.61 -2.875 7.125 C-2.90643293 9.86490408 -3.42978337 12.40917854 -3.875 15.125 C-3.215 15.125 -2.555 15.125 -1.875 15.125 C-1.875 15.785 -1.875 16.445 -1.875 17.125 C-1.215 17.125 -0.555 17.125 0.125 17.125 C0.455 16.465 0.785 15.805 1.125 15.125 C2.115 15.125 3.105 15.125 4.125 15.125 C5.115 18.095 6.105 21.065 7.125 24.125 C4.485 24.125 1.845 24.125 -0.875 24.125 C-0.875 25.115 -0.875 26.105 -0.875 27.125 C-1.6484375 27.40472656 -2.421875 27.68445313 -3.21875 27.97265625 C-9.5853458 30.42316528 -14.37941684 32.85651645 -19.15625 37.76953125 C-20.875 39.125 -20.875 39.125 -24.875 39.125 C-24.875 40.115 -24.875 41.105 -24.875 42.125 C-25.535 42.125 -26.195 42.125 -26.875 42.125 C-27.205 40.145 -27.535 38.165 -27.875 36.125 C-29.525 37.115 -31.175 38.105 -32.875 39.125 C-32.64712293 28.60122247 -29.70231577 16.71061719 -21.875 9.125 C-15.26300241 4.18372156 -8.5209061 -0.25820928 0 0 Z " fill="#1C1F25" transform="translate(133.875,46.875)"/>
<path d="M0 0 C9.11234507 0.13017636 16.45201036 3.29914035 22.98046875 9.6015625 C23.52316406 10.16617188 24.06585938 10.73078125 24.625 11.3125 C25.73875 12.4571875 25.73875 12.4571875 26.875 13.625 C29.45443879 17.58628101 31.00900512 21.88570552 32.625 26.3125 C32.83253906 25.61125 33.04007813 24.91 33.25390625 24.1875 C36.6817878 13.63134594 41.7328841 7.96668352 51.29296875 2.44140625 C55.41973207 0.44369335 58.80463621 0.19559091 63.375 0.25 C64.35984375 0.25902344 65.3446875 0.26804688 66.359375 0.27734375 C67.48085937 0.29474609 67.48085937 0.29474609 68.625 0.3125 C69.615 2.2925 70.605 4.2725 71.625 6.3125 C70.94695312 6.33828125 70.26890625 6.3640625 69.5703125 6.390625 C60.16701321 6.96367925 50.4756753 9.41145208 43.625 16.3125 C36.50719335 26.03233503 34.15276446 35.52175308 32.625 47.3125 C32.295 47.3125 31.965 47.3125 31.625 47.3125 C31.42197266 45.57226562 31.42197266 45.57226562 31.21484375 43.796875 C29.68934297 32.20456103 27.33872208 21.66330846 17.875 13.8125 C10.45707589 8.94852268 2.38165043 6.88670659 -6.375 6.3125 C-5.27033607 0.15794383 -5.27033607 0.15794383 0 0 Z " fill="#6AABB4" transform="translate(68.375,40.6875)"/>
<path d="M0 0 C0.66 0.99 1.32 1.98 2 3 C2.66 2.01 3.32 1.02 4 0 C6.27734375 -0.3984375 6.27734375 -0.3984375 8.9375 -0.375 C10.25041016 -0.38660156 10.25041016 -0.38660156 11.58984375 -0.3984375 C14 0 14 0 15.79296875 1.14453125 C17.52807911 3.8117721 17.39799912 5.90778707 17.375 9.0625 C17.38273437 10.12597656 17.39046875 11.18945312 17.3984375 12.28515625 C17.26695312 13.18105469 17.13546875 14.07695312 17 15 C13.74490156 17.17006563 13.22528527 17.15912837 9.5625 16.875 C5.68714966 16.75445434 5.68714966 16.75445434 2.4375 19 C1.7259375 19.99 1.7259375 19.99 1 21 C-1 20 -1 20 -2 19 C-2.33 19.99 -2.66 20.98 -3 22 C-3.99 21.67 -4.98 21.34 -6 21 C-6 18 -6 18 -5 17 C-5.804375 17.020625 -6.60875 17.04125 -7.4375 17.0625 C-10 17 -10 17 -11 16 C-11.15179378 13.69098304 -11.22181122 11.37632931 -11.25 9.0625 C-11.27578125 7.79535156 -11.3015625 6.52820313 -11.328125 5.22265625 C-11.21984375 4.15917969 -11.1115625 3.09570312 -11 2 C-6.91569792 -0.72286806 -4.85409123 -0.38524534 0 0 Z " fill="#242529" transform="translate(145,130)"/>
<path d="M0 0 C1.98 0 3.96 0 6 0 C5.42022443 3.47598164 4.53478895 6.29104698 2.93359375 9.42578125 C2.53076172 10.22177734 2.12792969 11.01777344 1.71289062 11.83789062 C1.29201172 12.65451172 0.87113281 13.47113281 0.4375 14.3125 C0.01275391 15.14845703 -0.41199219 15.98441406 -0.84960938 16.84570312 C-1.8943479 18.89996426 -2.94459762 20.95120292 -4 23 C-3.34918457 22.97534668 -2.69836914 22.95069336 -2.02783203 22.92529297 C10.55580164 22.64885723 19.4319275 28.2138409 28.625 36.3125 C31.79933509 39.90451077 34.85484431 43.69355964 37 48 C36.67 48.99 36.34 49.98 36 51 C35.43152344 50.33613281 34.86304688 49.67226562 34.27734375 48.98828125 C26.08840917 39.62363987 15.95801873 31.07924742 2.9152832 29.79467773 C2.13499756 29.75802002 1.35471191 29.7213623 0.55078125 29.68359375 C-0.72055664 29.62075195 -0.72055664 29.62075195 -2.01757812 29.55664062 C-2.89865234 29.51732422 -3.77972656 29.47800781 -4.6875 29.4375 C-6.02651367 29.37272461 -6.02651367 29.37272461 -7.39257812 29.30664062 C-9.59490108 29.20064647 -11.79733473 29.09857949 -14 29 C-12.72287446 24.89306101 -11.18709006 21.18406415 -9.1796875 17.3828125 C-8.64472656 16.36445312 -8.10976563 15.34609375 -7.55859375 14.296875 C-7.00300781 13.25015625 -6.44742188 12.2034375 -5.875 11.125 C-5.31167969 10.05507813 -4.74835937 8.98515625 -4.16796875 7.8828125 C-2.78265261 5.25305983 -1.39322404 2.62556917 0 0 Z " fill="#D77333" transform="translate(60,49)"/>
<path d="M0 0 C5.73825503 4.71812081 5.73825503 4.71812081 7.625 6.75 C9.32642969 8.29675426 10.76134195 8.61402447 13 9 C12.9071875 10.423125 12.9071875 10.423125 12.8125 11.875 C12.874375 12.90625 12.93625 13.9375 13 15 C13.99 15.66 14.98 16.32 16 17 C15.34 18.32 14.68 19.64 14 21 C9.05 13.575 9.05 13.575 4 6 C5.216875 8.43375 6.43375 10.8675 7.6875 13.375 C8.28050903 14.56319336 8.28050903 14.56319336 8.88549805 15.77539062 C10.45988791 18.92954501 12.04060192 22.07946789 13.64453125 25.21875 C14.09183594 26.0953125 14.53914063 26.971875 15 27.875 C15.5878125 29.01582031 15.5878125 29.01582031 16.1875 30.1796875 C17 32 17 32 17 34 C16.36610352 34.01458252 15.73220703 34.02916504 15.07910156 34.04418945 C-12.02924644 34.67676782 -12.02924644 34.67676782 -34.75 48.375 C-35.84964047 49.56851221 -36.93975247 50.77136021 -38 52 C-38 47.71881368 -35.98782533 46.19047961 -33.171875 43.12109375 C-23.11276288 33.29717669 -11.65725331 28.56145907 2.3125 28.6875 C5.21268405 28.75115924 8.10193649 28.86228843 11 29 C5.32548462 16.56859913 5.32548462 16.56859913 -1.1875 4.56640625 C-2 3 -2 3 -2 1 C-1.34 0.67 -0.68 0.34 0 0 Z " fill="#441F11" transform="translate(144,49)"/>
<path d="M0 0 C3.63 0 7.26 0 11 0 C10 7.42857143 10 7.42857143 9 11 C8.34 11 7.68 11 7 11 C7 11.66 7 12.32 7 13 C6.34 12.67 5.68 12.34 5 12 C6.65 8.37 8.3 4.74 10 1 C8.02 1 6.04 1 4 1 C3.773125 1.79148438 3.54625 2.58296875 3.3125 3.3984375 C1.61760404 8.04931273 -0.65655637 12.2728904 -3 16.625 C-3.8960991 18.30454573 -4.79194172 19.98422833 -5.6875 21.6640625 C-6.08324219 22.40092285 -6.47898437 23.1377832 -6.88671875 23.89697266 C-7.95592898 25.9167483 -8.98657844 27.95175472 -10 30 C-8.75605469 29.95359375 -7.51210938 29.9071875 -6.23046875 29.859375 C9.61838168 29.44020287 21.06000153 32.48462671 33.3984375 43.0546875 C37.02181702 46.52109751 39.33328838 49.20716757 41 54 C40.01 53.13375 39.02 52.2675 38 51.375 C36.67057292 50.24538661 35.33705246 49.1205773 34 48 C33.37480469 47.4740625 32.74960938 46.948125 32.10546875 46.40625 C21.30404088 37.78270677 8.95902075 35.76138337 -4.5 35.375 C-5.60859375 35.33632812 -6.7171875 35.29765625 -7.859375 35.2578125 C-10.57275797 35.16424757 -13.28614661 35.07850517 -16 35 C-14.60941509 32.01835683 -13.21154484 29.04018181 -11.8125 26.0625 C-11.42513672 25.23169922 -11.03777344 24.40089844 -10.63867188 23.54492188 C-8.29597634 18.56911401 -5.80307132 13.75174571 -3.0222168 9.00561523 C-1.99582067 6.99180004 -1.48008748 5.20005304 -1 3 C-0.67 2.01 -0.34 1.02 0 0 Z " fill="#41200F" transform="translate(56,48)"/>
<path d="M0 0 C1.2375 -0.01611328 2.475 -0.03222656 3.75 -0.04882812 C19.15066734 -0.05693374 30.69086316 3.79058231 42.625 13.3125 C41.965 13.6425 41.305 13.9725 40.625 14.3125 C38.59375 13.421875 38.59375 13.421875 36.125 12.0625 C20.94466278 4.17661054 1.52099485 2.60019815 -14.90625 7.4453125 C-18.1539908 8.58613284 -21.26778176 9.82950947 -24.375 11.3125 C-23.48683594 11.14878906 -22.59867188 10.98507813 -21.68359375 10.81640625 C-15.96505779 9.99947254 -10.200302 10.20740965 -4.4375 10.25 C-2.69629883 10.25676758 -2.69629883 10.25676758 -0.91992188 10.26367188 C1.92843934 10.27539353 4.77669222 10.2918024 7.625 10.3125 C7.625 10.6425 7.625 10.9725 7.625 11.3125 C1.685 11.6425 -4.255 11.9725 -10.375 12.3125 C-10.375 12.6425 -10.375 12.9725 -10.375 13.3125 C-19.78 13.8075 -19.78 13.8075 -29.375 14.3125 C-29.045 12.6625 -28.715 11.0125 -28.375 9.3125 C-25.405 8.6525 -22.435 7.9925 -19.375 7.3125 C-19.705 6.6525 -20.035 5.9925 -20.375 5.3125 C-22.69656597 4.90520772 -25.0318787 4.56811323 -27.375 4.3125 C-19.52952281 -0.91781812 -9.07243753 -0.02347939 0 0 Z " fill="#2E1C18" transform="translate(53.375,89.6875)"/>
<path d="M0 0 C2.31 0 4.62 0 7 0 C8.85374377 3.36416846 10.6792121 6.74289767 12.5 10.125 C13.02464844 11.07632813 13.54929688 12.02765625 14.08984375 13.0078125 C14.58613281 13.9359375 15.08242187 14.8640625 15.59375 15.8203125 C16.05458984 16.66867676 16.51542969 17.51704102 16.99023438 18.39111328 C18.15991128 21.41315569 18.18056848 23.78670189 18 27 C17.12263184 27.029729 17.12263184 27.029729 16.22753906 27.06005859 C13.56791975 27.15553481 10.90906162 27.26512142 8.25 27.375 C7.32960937 27.4059375 6.40921875 27.436875 5.4609375 27.46875 C4.12675781 27.52675781 4.12675781 27.52675781 2.765625 27.5859375 C1.94868164 27.6173584 1.13173828 27.6487793 0.29003906 27.68115234 C-2.03355272 27.88004402 -2.03355272 27.88004402 -4.04785156 29.02587891 C-6 30 -6 30 -10 30 C-10 28.68 -10 27.36 -10 26 C-8.36204595 25.31420242 -6.71401985 24.65245229 -5.0625 24 C-4.14597656 23.62875 -3.22945312 23.2575 -2.28515625 22.875 C1.87957196 21.76572637 5.71883715 21.82853916 10 22 C9.69707031 21.36908447 9.39414063 20.73816895 9.08203125 20.08813477 C7.71935246 17.24721155 6.35963851 14.40487943 5 11.5625 C4.52304688 10.56927734 4.04609375 9.57605469 3.5546875 8.55273438 C3.10351562 7.60849609 2.65234375 6.66425781 2.1875 5.69140625 C1.76855469 4.81685791 1.34960938 3.94230957 0.91796875 3.04125977 C0 1 0 1 0 0 Z " fill="#E97123" transform="translate(135,50)"/>
<path d="M0 0 C0.66 0.33 1.32 0.66 2 1 C2 8.26 2 15.52 2 23 C0.35 22.67 -1.3 22.34 -3 22 C-3 20.35 -3 18.7 -3 17 C-3.886875 17.103125 -4.77375 17.20625 -5.6875 17.3125 C-9 17 -9 17 -11.875 15 C-14.81148802 10.85436985 -14.7152453 9.00671711 -14 4 C-11.02042784 -1.41740394 -5.48958144 -0.58338757 0 0 Z " fill="#F3F3F4" transform="translate(109,130)"/>
<path d="M0 0 C2.4375 0.75 2.4375 0.75 4.4375 2.75 C5.12353516 4.62939453 5.12353516 4.62939453 5.7265625 6.8828125 C5.94570313 7.68847656 6.16484375 8.49414062 6.390625 9.32421875 C6.61234375 10.16597656 6.8340625 11.00773438 7.0625 11.875 C7.40667969 13.14923828 7.40667969 13.14923828 7.7578125 14.44921875 C8.32375866 16.54793577 8.88337795 18.6481359 9.4375 20.75 C7.7875 21.08 6.1375 21.41 4.4375 21.75 C3.7775 20.1 3.1175 18.45 2.4375 16.75 C0.1275 16.75 -2.1825 16.75 -4.5625 16.75 C-4.8925 18.4 -5.2225 20.05 -5.5625 21.75 C-7.2125 21.42 -8.8625 21.09 -10.5625 20.75 C-9.96495431 14.17699744 -8.22234967 7.79427908 -5.5625 1.75 C-2.5625 -0.25 -2.5625 -0.25 0 0 Z " fill="#EEEFF2" transform="translate(29.5625,125.25)"/>
<path d="M0 0 C0.8156543 0.00088623 1.63130859 0.00177246 2.47167969 0.00268555 C13.24501636 0.20857877 23.12697007 2.98541674 32.9375 7.375 C29.84947655 8.40434115 28.73278864 8.35228336 25.60546875 7.94140625 C16.18746188 6.97462123 6.70553452 7.27050358 -2.75 7.3125 C-4.72330616 7.31752443 -6.69661355 7.32208567 -8.66992188 7.32617188 C-13.46747885 7.33710412 -18.26497556 7.3543169 -23.0625 7.375 C-23.0625 6.715 -23.0625 6.055 -23.0625 5.375 C-21.4125 5.045 -19.7625 4.715 -18.0625 4.375 C-18.0625 3.715 -18.0625 3.055 -18.0625 2.375 C-11.99094969 0.81376987 -6.26859348 -0.0124951 0 0 Z " fill="#E27127" transform="translate(142.0625,93.625)"/>
<path d="M0 0 C4.63235294 2.26470588 4.63235294 2.26470588 6 5 C6.43734806 8.8486629 6.09817362 10.79987686 4.375 14.3125 C2 17 2 17 -0.875 18.0625 C-4.72174421 17.98556512 -6.79798186 17.11042105 -10 15 C-12.15741221 12.37358513 -11.9990559 10.94713058 -11.9375 7.5 C-11 4 -11 4 -8.8125 1.5625 C-5.4732175 -0.29265694 -3.76604494 -0.54921489 0 0 Z " fill="#69B3BD" transform="translate(104,29)"/>
<path d="M0 0 C1.79133978 -0.05391993 3.58313899 -0.09275571 5.375 -0.125 C6.37273437 -0.14820313 7.37046875 -0.17140625 8.3984375 -0.1953125 C11 0 11 0 13 2 C13.1953125 5.2578125 13.1953125 5.2578125 13.125 9.125 C13.10695313 10.40632812 13.08890625 11.68765625 13.0703125 13.0078125 C13.04710938 13.99523437 13.02390625 14.98265625 13 16 C10.54617866 17.22691067 8.80015897 17.20175931 6.0625 17.25 C5.18722656 17.27578125 4.31195313 17.3015625 3.41015625 17.328125 C1 17 1 17 -0.78515625 15.640625 C-2 14 -2 14 -2.5 11.5 C-2 9 -2 9 0.1875 7.1875 C3.07191101 5.96963757 4.91045823 5.73518213 8 6 C8 5.34 8 4.68 8 4 C5.03 4 2.06 4 -1 4 C-0.67 2.68 -0.34 1.36 0 0 Z " fill="#F3F4F6" transform="translate(61,130)"/>
<path d="M0 0 C1.60379341 -0.05416188 3.20811406 -0.09286638 4.8125 -0.125 C5.70582031 -0.14820313 6.59914063 -0.17140625 7.51953125 -0.1953125 C10 0 10 0 13 2 C13.3984375 4.96875 13.3984375 4.96875 13.375 8.5 C13.38273437 9.6653125 13.39046875 10.830625 13.3984375 12.03125 C13.26695313 13.0109375 13.13546875 13.990625 13 15 C9.90219052 17.06520632 9.0459519 17.29477024 5.5 17.3125 C4.33984375 17.33763672 4.33984375 17.33763672 3.15625 17.36328125 C0.48600453 16.91340294 -0.37717542 16.13154701 -2 14 C-2.4375 11.5 -2.4375 11.5 -2 9 C0.37869491 6.34684029 1.67124653 6.01896655 5.25 5.8125 C6.61125 5.9053125 6.61125 5.9053125 8 6 C8 5.34 8 4.68 8 4 C5.03 4 2.06 4 -1 4 C-0.67 2.68 -0.34 1.36 0 0 Z " fill="#DDDEE0" transform="translate(79,130)"/>
<path d="M0 0 C1.60332791 -0.08121924 3.20784026 -0.13929134 4.8125 -0.1875 C6.15248047 -0.23970703 6.15248047 -0.23970703 7.51953125 -0.29296875 C10 0 10 0 11.80078125 1.1328125 C13.51972622 3.80921542 13.3980007 5.90757054 13.375 9.0625 C13.38273438 10.12597656 13.39046875 11.18945312 13.3984375 12.28515625 C13.26695312 13.18105469 13.13546875 14.07695312 13 15 C9.877998 17.08133467 9.06733011 17.2737822 5.5 17.25 C4.33984375 17.25773437 4.33984375 17.25773437 3.15625 17.265625 C1 17 1 17 -2 15 C-2.5 12.0625 -2.5 12.0625 -2 9 C0.6522856 6.72661235 2.32901036 6.04473264 5.8125 5.8125 C6.534375 5.874375 7.25625 5.93625 8 6 C8 5.34 8 4.68 8 4 C5.03 4 2.06 4 -1 4 C-0.67 2.68 -0.34 1.36 0 0 Z " fill="#DDDFE0" transform="translate(149,130)"/>
<path d="M0 0 C0.86625 -0.01675781 1.7325 -0.03351563 2.625 -0.05078125 C5 0.3125 5 0.3125 6.80078125 1.3828125 C8.66001243 4.37453955 8.28305517 7.02816209 8.1875 10.5 C8.16042969 11.77230469 8.13335937 13.04460937 8.10546875 14.35546875 C8.07066406 15.33128906 8.03585938 16.30710938 8 17.3125 C6.35 16.9825 4.7 16.6525 3 16.3125 C2.67 12.6825 2.34 9.0525 2 5.3125 C0.68 4.9825 -0.64 4.6525 -2 4.3125 C-2 8.6025 -2 12.8925 -2 17.3125 C-3.65 17.3125 -5.3 17.3125 -7 17.3125 C-8.93923052 15.37326948 -8.21866472 11.94710405 -8.25 9.375 C-8.27578125 8.10785156 -8.3015625 6.84070313 -8.328125 5.53515625 C-8.21984375 4.47167969 -8.1115625 3.40820312 -8 2.3125 C-4.78169935 0.16696623 -3.73213493 0.01666132 0 0 Z " fill="#E1E2E4" transform="translate(173,129.6875)"/>
<path d="M0 0 C0.76183594 -0.02835938 1.52367187 -0.05671875 2.30859375 -0.0859375 C5.53372888 0.5736222 6.64699894 1.72010688 8.5625 4.375 C8.953125 7.609375 8.953125 7.609375 8.8125 11.125 C8.77640625 12.29546875 8.7403125 13.4659375 8.703125 14.671875 C8.63351563 16.00992188 8.63351563 16.00992188 8.5625 17.375 C6.89638095 17.417721 5.22867115 17.41563832 3.5625 17.375 C2.5625 16.375 2.5625 16.375 2.46484375 13.65234375 C2.47644531 12.55019531 2.48804688 11.44804687 2.5 10.3125 C2.50902344 9.20777344 2.51804687 8.10304687 2.52734375 6.96484375 C2.53894531 6.11019531 2.55054688 5.25554687 2.5625 4.375 C0.9125 4.375 -0.7375 4.375 -2.4375 4.375 C-2.4375 8.665 -2.4375 12.955 -2.4375 17.375 C-4.0875 17.375 -5.7375 17.375 -7.4375 17.375 C-7.51826963 14.91601345 -7.57787143 12.45966258 -7.625 10 C-7.65013672 9.30132812 -7.67527344 8.60265625 -7.70117188 7.8828125 C-7.73046875 5.8515625 -7.73046875 5.8515625 -7.4375 2.375 C-4.37702368 0.33468245 -3.50254006 0.05906476 0 0 Z " fill="#E5E6E8" transform="translate(48.4375,129.625)"/>
<path d="M0 0 C0.99 0 1.98 0 3 0 C3 0.66 3 1.32 3 2 C4.32 2 5.64 2 7 2 C7.13277344 2.63808594 7.26554687 3.27617188 7.40234375 3.93359375 C7.57894531 4.75988281 7.75554687 5.58617188 7.9375 6.4375 C8.11152344 7.26121094 8.28554687 8.08492187 8.46484375 8.93359375 C8.80752994 10.97661204 8.80752994 10.97661204 10 12 C10.33 10.68 10.66 9.36 11 8 C11.66 8 12.32 8 13 8 C13.37125 6.824375 13.37125 6.824375 13.75 5.625 C15.15389099 2.67682892 16.00675737 2.0975223 19 1 C19.33 2.98 19.66 4.96 20 7 C20.66 7 21.32 7 22 7 C22 6.01 22 5.02 22 4 C22.99 4.33 23.98 4.66 25 5 C24.54109375 5.61746094 24.0821875 6.23492187 23.609375 6.87109375 C19.6338245 12.35835568 16.4571435 17.68163101 14 24 C10.88033268 20.88033268 9.43208896 16.8944256 7.53515625 12.9453125 C6.20089415 10.38543052 4.72367059 8.29479726 3 6 C3 5.34 3 4.68 3 4 C2.01 3.67 1.02 3.34 0 3 C0 2.01 0 1.02 0 0 Z " fill="#1C1E24" transform="translate(87,82)"/>
<path d="M0 0 C5.73825503 4.71812081 5.73825503 4.71812081 7.625 6.75 C9.32642969 8.29675426 10.76134195 8.61402447 13 9 C12.938125 9.94875 12.87625 10.8975 12.8125 11.875 C12.874375 12.90625 12.93625 13.9375 13 15 C13.99 15.66 14.98 16.32 16 17 C15.34 18.32 14.68 19.64 14 21 C10.7 16.05 7.4 11.1 4 6 C5.2375 8.475 6.475 10.95 7.75 13.5 C8.80821108 15.61642216 9.86636987 17.73281704 10.91992188 19.8515625 C11.65361487 21.31098798 12.4002133 22.76398222 13.15820312 24.2109375 C13.52365234 24.91476563 13.88910156 25.61859375 14.265625 26.34375 C14.76497559 27.29024414 14.76497559 27.29024414 15.27441406 28.25585938 C16 30 16 30 16 33 C13.37405216 32.8863485 10.74988453 32.75960946 8.125 32.625 C7.37863281 32.5940625 6.63226563 32.563125 5.86328125 32.53125 C0.2265625 32.2265625 0.2265625 32.2265625 -2 30 C4.435 29.505 4.435 29.505 11 29 C5.32548462 16.56859913 5.32548462 16.56859913 -1.1875 4.56640625 C-2 3 -2 3 -2 1 C-1.34 0.67 -0.68 0.34 0 0 Z " fill="#452616" transform="translate(144,49)"/>
<path d="M0 0 C1.65 0 3.3 0 5 0 C5.33 3.96 5.66 7.92 6 12 C7.65 12.33 9.3 12.66 11 13 C11 8.71 11 4.42 11 0 C12.65 0 14.3 0 16 0 C16.08097324 2.27024968 16.13917704 4.54132075 16.1875 6.8125 C16.23970703 8.70935547 16.23970703 8.70935547 16.29296875 10.64453125 C16 14 16 14 14.765625 15.92578125 C12.55596955 17.27015127 11.14092333 17.4010886 8.5625 17.375 C7.80066406 17.38273437 7.03882812 17.39046875 6.25390625 17.3984375 C3.29597137 16.87554433 2.01995453 16.24794037 0 14 C-0.390625 10.64453125 -0.390625 10.64453125 -0.25 6.8125 C-0.21390625 5.54019531 -0.1778125 4.26789063 -0.140625 2.95703125 C-0.09421875 1.98121094 -0.0478125 1.00539062 0 0 Z " fill="#F6F7F9" transform="translate(115,130)"/>
<path d="M0 0 C0 0.33 0 0.66 0 1 C-0.90363281 1.06058594 -1.80726563 1.12117188 -2.73828125 1.18359375 C-4.50751953 1.30927734 -4.50751953 1.30927734 -6.3125 1.4375 C-8.07013672 1.55931641 -8.07013672 1.55931641 -9.86328125 1.68359375 C-13.02590958 1.8867371 -13.02590958 1.8867371 -16 3 C-14.29457031 3.07347656 -14.29457031 3.07347656 -12.5546875 3.1484375 C-2.9209438 3.60175319 6.47506059 4.42271904 16 6 C15.67 6.66 15.34 7.32 15 8 C15.99 8.33 16.98 8.66 18 9 C18 9.66 18 10.32 18 11 C17.39414063 10.80664062 16.78828125 10.61328125 16.1640625 10.4140625 C13.45254055 9.57140491 10.73117512 8.77654771 8 8 C7.26652344 7.78730469 6.53304687 7.57460937 5.77734375 7.35546875 C-11.27111935 3.17603952 -29.66502908 5.7191157 -45 14 C-45.66 13.67 -46.32 13.34 -47 13 C-34.16268132 0.85659044 -16.82716535 -0.59004346 0 0 Z " fill="#522816" transform="translate(154,89)"/>
<path d="M0 0 C4.08294109 -0.1475051 8.16518143 -0.23479965 12.25 -0.3125 C13.38953125 -0.35439453 14.5290625 -0.39628906 15.703125 -0.43945312 C25.80542436 -0.5829517 34.42464173 1.69644435 42.25 8.3125 C43.61125 9.6428125 43.61125 9.6428125 45 11 C40.98622358 12.62321841 38.37089229 11.26337932 34.5 9.6875 C33.3759375 9.23761719 32.251875 8.78773437 31.09375 8.32421875 C28 7 28 7 25.96875 5.89453125 C20.79310563 3.54289918 14.72366205 3.72692236 9.125 3.4375 C8.34125 3.39431641 7.5575 3.35113281 6.75 3.30664062 C4.83349351 3.20146649 2.91676667 3.10032075 1 3 C0.67 2.01 0.34 1.02 0 0 Z " fill="#E57328" transform="translate(46,85)"/>
<path d="M0 0 C0.33 0.99 0.66 1.98 1 3 C0.67 3.66 0.34 4.32 0 5 C7.59 5 15.18 5 23 5 C22.67 4.67 22.34 4.34 22 4 C23.6953125 3.3359375 23.6953125 3.3359375 26 3 C36.23487021 7.49253379 44.13036641 14.94957412 49 25 C48.505 26.485 48.505 26.485 48 28 C47.43152344 27.33613281 46.86304688 26.67226562 46.27734375 25.98828125 C38.08840917 16.62363987 27.95801873 8.07924742 14.9152832 6.79467773 C13.74485474 6.73969116 13.74485474 6.73969116 12.55078125 6.68359375 C11.70322266 6.64169922 10.85566406 6.59980469 9.98242188 6.55664062 C9.10134766 6.51732422 8.22027344 6.47800781 7.3125 6.4375 C5.97348633 6.37272461 5.97348633 6.37272461 4.60742188 6.30664062 C2.40509892 6.20064647 0.20266527 6.09857949 -2 6 C-1.34 4.02 -0.68 2.04 0 0 Z " fill="#D17035" transform="translate(48,72)"/>
<path d="M0 0 C2 3 2 3 2 5 C3.65 5 5.3 5 7 5 C7 5.66 7 6.32 7 7 C7.556875 6.67 8.11375 6.34 8.6875 6 C11.30284522 4.8690399 13.1806646 4.84337026 16 5 C16 5.66 16 6.32 16 7 C16.99 7 17.98 7 19 7 C18.67 7.598125 18.34 8.19625 18 8.8125 C16.79212012 11.05386471 16.79212012 11.05386471 17 14 C17 14.99 17 15.98 17 17 C16.24976562 16.65066406 15.49953125 16.30132812 14.7265625 15.94140625 C8.07153053 12.98268297 2.29745688 11.17759298 -5 11 C-3.77472971 6.94718288 -2.30119506 3.55639236 0 0 Z " fill="#211E1E" transform="translate(61,61)"/>
<path d="M0 0 C10.45184832 0.75005464 18.07666171 5.56023035 26.06640625 12.0546875 C25.40640625 12.3846875 24.74640625 12.7146875 24.06640625 13.0546875 C22.03515625 12.1640625 22.03515625 12.1640625 19.56640625 10.8046875 C8.21905064 4.90995731 -2.74132773 3.89474717 -15.37109375 3.9921875 C-16.48419922 3.99669922 -17.59730469 4.00121094 -18.74414062 4.00585938 C-21.47401476 4.01757557 -24.20377549 4.03398051 -26.93359375 4.0546875 C-26.93359375 3.0646875 -26.93359375 2.0746875 -26.93359375 1.0546875 C-25.8509021 1.06254272 -25.8509021 1.06254272 -24.74633789 1.07055664 C-21.49626526 1.09126108 -18.24620647 1.10432668 -14.99609375 1.1171875 C-13.29163086 1.12975586 -13.29163086 1.12975586 -11.55273438 1.14257812 C-10.47314453 1.14580078 -9.39355469 1.14902344 -8.28125 1.15234375 C-7.28101807 1.15758057 -6.28078613 1.16281738 -5.25024414 1.16821289 C-2.63205656 1.03991094 -2.49229276 0.07048909 0 0 Z " fill="#3F1D0C" transform="translate(69.93359375,90.9453125)"/>
<path d="M0 0 C0.66 0.66 1.32 1.32 2 2 C2.33 1.34 2.66 0.68 3 0 C7.27885777 1.79031706 8.38542826 3.70807323 10.11328125 7.89453125 C11.27449772 11.96134665 11.83297091 15.99140829 12.3125 20.1875 C12.40096191 20.95964844 12.48942383 21.73179688 12.58056641 22.52734375 C13.00459058 26.88980979 12.95852116 30.67631104 12 35 C11.67 35 11.34 35 11 35 C10.86464844 33.83984375 10.72929688 32.6796875 10.58984375 31.484375 C9.36829742 22.25348395 7.84686844 15.26345956 2.5234375 7.48046875 C0.95189667 4.92167791 0.39255084 2.95474079 0 0 Z " fill="#66A7B0" transform="translate(89,53)"/>
<path d="M0 0 C2 0 2 0 3.625 1.25 C5 3 5 3 5 7 C3.04174127 7.02694851 1.08337774 7.04637218 -0.875 7.0625 C-2.51082031 7.07990234 -2.51082031 7.07990234 -4.1796875 7.09765625 C-7 7 -7 7 -9 6 C-18.72917946 5.53670574 -28.35018165 6.89036996 -38 8 C-35.88236577 4.82354865 -34.92383899 4.24833672 -31.33154297 3.34863281 C-26.1144229 2.56852313 -20.82327605 2.80037906 -15.5625 2.875 C-13.74975586 2.88853516 -13.74975586 2.88853516 -11.90039062 2.90234375 C-8.93338722 2.92579832 -5.96679857 2.95862206 -3 3 C-3 3.66 -3 4.32 -3 5 C-2.01 4.67 -1.02 4.34 0 4 C0 2.68 0 1.36 0 0 Z " fill="#F2711B" transform="translate(163,82)"/>
<path d="M0 0 C1.32 0 2.64 0 4 0 C3.69106068 1.6256807 3.3777305 3.25052748 3.0625 4.875 C2.88847656 5.77992188 2.71445312 6.68484375 2.53515625 7.6171875 C2 10 2 10 1 12 C2.32 12.33 3.64 12.66 5 13 C4.01 14.485 4.01 14.485 3 16 C2.01 16 1.02 16 0 16 C-0.33 17.65 -0.66 19.3 -1 21 C-2.65 20.67 -4.3 20.34 -6 20 C-5.46137794 14.07515739 -4.29622483 4.29622483 0 0 Z " fill="#F4F5F6" transform="translate(25,126)"/>
<path d="M0 0 C0.99 0 1.98 0 3 0 C2.67 2.97 2.34 5.94 2 9 C2.94875 8.814375 3.8975 8.62875 4.875 8.4375 C9.61456775 7.78943666 14.35869387 7.74401931 19 9 C21.125 11.5625 21.125 11.5625 22 14 C20.02 14 18.04 14 16 14 C16 13.67 16 13.34 16 13 C9.07 12.67 2.14 12.34 -5 12 C-3.54996379 7.64989137 -2.09990776 4.00891482 0 0 Z " fill="#EF711F" transform="translate(53,65)"/>
<path d="M0 0 C2.31243792 -0.02685412 4.6249627 -0.04632841 6.9375 -0.0625 C8.22527344 -0.07410156 9.51304688 -0.08570312 10.83984375 -0.09765625 C14 0 14 0 15 1 C17.85528607 1.400383 20.69736487 1.7518227 23.5625 2.0625 C24.36880859 2.15337891 25.17511719 2.24425781 26.00585938 2.33789062 C28.00347377 2.56247449 30.0016856 2.78173236 32 3 C32 3.66 32 4.32 32 5 C29.18466854 6.40766573 27.13383536 5.8934072 24 5.625 C18.04407316 5.14827821 12.09135931 4.75882023 6.125 4.4375 C4.92037109 4.37199951 4.92037109 4.37199951 3.69140625 4.30517578 C1.79432281 4.20248583 -0.10283096 4.10109631 -2 4 C-1.34 2.68 -0.68 1.36 0 0 Z " fill="#F37018" transform="translate(52,95)"/>
<path d="M0 0 C3.68976759 3.37374582 6.28376259 7.15994917 9 11.3125 C9.42539063 11.95123047 9.85078125 12.58996094 10.2890625 13.24804688 C13.03731631 17.4083636 15.56762591 21.64762691 18 26 C17.01 26.33 16.02 26.66 15 27 C15 27.99 15 28.98 15 30 C7.08 30 -0.84 30 -9 30 C-9 29.67 -9 29.34 -9 29 C-1.41 29 6.18 29 14 29 C12.80375 26.7725 11.6075 24.545 10.375 22.25 C0 2.8240598 0 2.8240598 0 0 Z " fill="#D07135" transform="translate(147,54)"/>
<path d="M0 0 C0.66 0.33 1.32 0.66 2 1 C1.50628906 1.71285156 1.01257813 2.42570312 0.50390625 3.16015625 C-3.90353531 9.74914837 -6.23607755 13.80629391 -5.875 21.75 C-4.68037071 24.8219039 -2.80223077 25.41925444 0 27 C0 27.99 0 28.98 0 30 C-0.99 30 -1.98 30 -3 30 C-3 30.99 -3 31.98 -3 33 C-3.66 33 -4.32 33 -5 33 C-5.33 31.02 -5.66 29.04 -6 27 C-7.65 27.99 -9.3 28.98 -11 30 C-10.75138716 18.51860713 -7.13967497 8.9755914 0 0 Z " fill="#1A252E" transform="translate(112,56)"/>
<path d="M0 0 C0 0.66 0 1.32 0 2 C2.97 2 5.94 2 9 2 C9 2.66 9 3.32 9 4 C8.43410156 4.13277344 7.86820313 4.26554688 7.28515625 4.40234375 C6.18494141 4.66724609 6.18494141 4.66724609 5.0625 4.9375 C4.33160156 5.11152344 3.60070312 5.28554687 2.84765625 5.46484375 C1.00030102 5.83887569 1.00030102 5.83887569 0 7 C-0.04092937 9.33297433 -0.04241723 11.66705225 0 14 C2.97 14.33 5.94 14.66 9 15 C8.34 16.32 7.68 17.64 7 19 C6.34 19 5.68 19 5 19 C4.67 18.34 4.34 17.68 4 17 C3.01 17 2.02 17 1 17 C0.13375 16.814375 -0.7325 16.62875 -1.625 16.4375 C-2.40875 16.293125 -3.1925 16.14875 -4 16 C-4.33 16.33 -4.66 16.66 -5 17 C-3.68 17.33 -2.36 17.66 -1 18 C-2.65 18 -4.3 18 -6 18 C-6 16.68 -6 15.36 -6 14 C-5.34 14 -4.68 14 -4 14 C-4 9.71 -4 5.42 -4 1 C-2 0 -2 0 0 0 Z " fill="#25262A" transform="translate(78,132)"/>
<path d="M0 0 C1.8871875 0.061875 1.8871875 0.061875 3.8125 0.125 C3.8125 1.445 3.8125 2.765 3.8125 4.125 C1.8325 4.125 -0.1475 4.125 -2.1875 4.125 C-2.1875 8.415 -2.1875 12.705 -2.1875 17.125 C-3.8375 16.795 -5.4875 16.465 -7.1875 16.125 C-7.26825665 13.83390403 -7.32657731 11.54200733 -7.375 9.25 C-7.40980469 7.97382813 -7.44460937 6.69765625 -7.48046875 5.3828125 C-7.38378906 4.30773437 -7.28710938 3.23265625 -7.1875 2.125 C-4.09861478 0.06574319 -3.47814073 -0.1140374 0 0 Z " fill="#F4F5F7" transform="translate(141.1875,129.875)"/>
<path d="M0 0 C7.65937136 4.86608398 15.29971117 9.77527718 18.38671875 18.65234375 C17.39671875 17.78609375 16.40671875 16.91984375 15.38671875 16.02734375 C14.05729167 14.89773036 12.72377121 13.77292105 11.38671875 12.65234375 C10.76152344 12.12640625 10.13632813 11.60046875 9.4921875 11.05859375 C2.28602831 5.30540759 -5.69951632 2.6331804 -14.61328125 0.65234375 C-14.61328125 0.32234375 -14.61328125 -0.00765625 -14.61328125 -0.34765625 C-8.82358457 -2.27755514 -5.47763894 -2.82479138 0 0 Z " fill="#491D0C" transform="translate(78.61328125,83.34765625)"/>
<path d="M0 0 C0.33 1.32 0.66 2.64 1 4 C0.34 4 -0.32 4 -1 4 C-0.84402344 4.55429688 -0.68804687 5.10859375 -0.52734375 5.6796875 C-0.33269531 6.40414062 -0.13804688 7.12859375 0.0625 7.875 C0.25972656 8.59429687 0.45695312 9.31359375 0.66015625 10.0546875 C1 12 1 12 0 14 C0.66 14 1.32 14 2 14 C2.33 14.66 2.66 15.32 3 16 C3.66 14.68 4.32 13.36 5 12 C5.08078641 14.12438339 5.13909141 16.2496323 5.1875 18.375 C5.22230469 19.55835938 5.25710937 20.74171875 5.29296875 21.9609375 C5.19628906 22.96382812 5.09960938 23.96671875 5 25 C4.01 25.66 3.02 26.32 2 27 C1.89042969 26.39414063 1.78085937 25.78828125 1.66796875 25.1640625 C-0.43961381 13.67207003 -0.43961381 13.67207003 -5 3 C-5.66 2.67 -6.32 2.34 -7 2 C-4 0 -4 0 0 0 Z " fill="#232429" transform="translate(36,121)"/>
<path d="M0 0 C0.99 0 1.98 0 3 0 C3 0.66 3 1.32 3 2 C4.32 2 5.64 2 7 2 C7.16435547 2.88751953 7.16435547 2.88751953 7.33203125 3.79296875 C8.267925 8.45721971 9.32713255 11.99069883 12 16 C12 16.66 12 17.32 12 18 C12.99 18 13.98 18 15 18 C15 16.68 15 15.36 15 14 C15.66 14 16.32 14 17 14 C17.33 12.68 17.66 11.36 18 10 C18.99 10.33 19.98 10.66 21 11 C20.401875 12.03125 19.80375 13.0625 19.1875 14.125 C17.33606301 17.36007317 15.63454714 20.64917836 14 24 C10.88033268 20.88033268 9.43208896 16.8944256 7.53515625 12.9453125 C6.20089415 10.38543052 4.72367059 8.29479726 3 6 C3 5.34 3 4.68 3 4 C2.01 3.67 1.02 3.34 0 3 C0 2.01 0 1.02 0 0 Z " fill="#3F1E10" transform="translate(87,82)"/>
<path d="M0 0 C0.33 0.66 0.66 1.32 1 2 C-0.17163086 4.70556641 -0.17163086 4.70556641 -1.96484375 8.1015625 C-2.43308311 8.99625748 -2.43308311 8.99625748 -2.91078186 9.9090271 C-3.91224257 11.81837656 -4.92469588 13.72164741 -5.9375 15.625 C-6.617267 16.91628235 -7.29631301 18.20794453 -7.97460938 19.5 C-9.64138745 22.67112108 -11.3180745 25.83688172 -13 29 C-13.66 28.01 -14.32 27.02 -15 26 C-15.66 26.99 -16.32 27.98 -17 29 C-17.66 28.67 -18.32 28.34 -19 28 C-12.77894539 18.58820391 -6.40934613 9.28412638 0 0 Z " fill="#CD7335" transform="translate(54,53)"/>
<path d="M0 0 C2.31 0 4.62 0 7 0 C8.17176518 2.12232979 9.33754785 4.24757791 10.5 6.375 C10.83386719 6.97828125 11.16773438 7.5815625 11.51171875 8.203125 C14 12.7734375 14 12.7734375 14 15 C13.34 15 12.68 15 12 15 C12 14.01 12 13.02 12 12 C11.34 12 10.68 12 10 12 C10 11.01 10 10.02 10 9 C9.34 9 8.68 9 8 9 C8.33 11.64 8.66 14.28 9 17 C5.81030154 14.33712861 4.49363373 11.11915463 2.8125 7.375 C2.28269531 6.20710938 1.75289062 5.03921875 1.20703125 3.8359375 C0 1 0 1 0 0 Z " fill="#DB7031" transform="translate(135,50)"/>
<path d="M0 0 C0.598125 0.20625 1.19625 0.4125 1.8125 0.625 C1.4825 1.615 1.1525 2.605 0.8125 3.625 C0.58798542 5.85074335 0.40467122 8.08081519 0.25 10.3125 C0.16621094 11.49199219 0.08242188 12.67148438 -0.00390625 13.88671875 C-0.06449219 14.79035156 -0.12507813 15.69398438 -0.1875 16.625 C-1.8375 16.625 -3.4875 16.625 -5.1875 16.625 C-5.26826963 14.16601345 -5.32787143 11.70966258 -5.375 9.25 C-5.40013672 8.55132812 -5.42527344 7.85265625 -5.45117188 7.1328125 C-5.48046875 5.1015625 -5.48046875 5.1015625 -5.1875 1.625 C-2.1875 -0.375 -2.1875 -0.375 0 0 Z " fill="#F8F9FA" transform="translate(46.1875,130.375)"/>
<path d="M0 0 C-0.33 1.65 -0.66 3.3 -1 5 C1.97 5 4.94 5 8 5 C8 5.66 8 6.32 8 7 C3.545 8.485 3.545 8.485 -1 10 C-1.15149298 13.62885324 -1.15149298 13.62885324 0 17 C-0.99 17.33 -1.98 17.66 -3 18 C-5.17912409 15.82087591 -4.38689378 10.93053185 -4.5234375 7.98046875 C-5.03408083 4.78685512 -5.85666506 3.36683778 -8 1 C-3.375 -1.125 -3.375 -1.125 0 0 Z " fill="#25262A" transform="translate(61,129)"/>
<path d="M0 0 C3.20899141 0.11071695 6.41689709 0.24114313 9.625 0.375 C10.98044922 0.42140625 10.98044922 0.42140625 12.36328125 0.46875 C17.25384672 0.68293535 21.40801632 1.12354155 26 3 C25.67 3.99 25.34 4.98 25 6 C24.41734375 5.93941406 23.8346875 5.87882812 23.234375 5.81640625 C16.49590043 5.12772567 9.75149484 4.54522381 3 4 C3 3.34 3 2.68 3 2 C2.01 2 1.02 2 0 2 C0 1.34 0 0.68 0 0 Z " fill="#382317" transform="translate(45,77)"/>
<path d="M0 0 C2.375 -0.125 2.375 -0.125 5 0 C7 2 7 2 7.1953125 5.2578125 C7.16050781 7.17207031 7.16050781 7.17207031 7.125 9.125 C7.10695312 10.40632812 7.08890625 11.68765625 7.0703125 13.0078125 C7.04710937 13.99523437 7.02390625 14.98265625 7 16 C5.35 15.67 3.7 15.34 2 15 C2 10.71 2 6.42 2 2 C1.34 2 0.68 2 0 2 C0 1.34 0 0.68 0 0 Z " fill="#F9FAFB" transform="translate(174,131)"/>
<path d="M0 0 C-1.65 0.33 -3.3 0.66 -5 1 C-5 1.66 -5 2.32 -5 3 C-2.03 3 0.94 3 4 3 C4 3.33 4 3.66 4 4 C0.60641656 4.84268087 -2.79019085 5.67247901 -6.1875 6.5 C-7.14720703 6.73847656 -8.10691406 6.97695312 -9.09570312 7.22265625 C-10.49272461 7.56103516 -10.49272461 7.56103516 -11.91796875 7.90625 C-12.77156982 8.11572266 -13.6251709 8.32519531 -14.50463867 8.54101562 C-17.05946307 9.01093734 -19.40844759 9.08117627 -22 9 C-20.2358062 5.47161241 -16.14609319 4.44090912 -12.6875 2.8125 C-11.52831055 2.24112305 -11.52831055 2.24112305 -10.34570312 1.65820312 C-9.59611328 1.30306641 -8.84652344 0.94792969 -8.07421875 0.58203125 C-7.04687622 0.09053589 -7.04687622 0.09053589 -5.9987793 -0.41088867 C-3.62378372 -1.11088431 -2.3121141 -0.79334395 0 0 Z " fill="#D47335" transform="translate(124,98)"/>
<path d="M0 0 C0.33 0.66 0.66 1.32 1 2 C1.66 2.33 2.32 2.66 3 3 C2.01 3.495 2.01 3.495 1 4 C0.94616152 6.45862401 0.90640962 8.9160755 0.875 11.375 C0.85824219 12.07367188 0.84148437 12.77234375 0.82421875 13.4921875 C0.80655733 15.32897486 0.89696739 17.16601963 1 19 C1.66 19.66 2.32 20.32 3 21 C1.68 21 0.36 21 -1 21 C-1 20.34 -1 19.68 -1 19 C-2.65 19.33 -4.3 19.66 -6 20 C-5.67902344 19.48695313 -5.35804688 18.97390625 -5.02734375 18.4453125 C-3.24625522 14.20591546 -3.58793852 9.66441475 -3.44140625 5.1171875 C-3.29574219 4.08851563 -3.15007812 3.05984375 -3 2 C-2.01 1.34 -1.02 0.68 0 0 Z " fill="#25262B" transform="translate(134,128)"/>
<path d="M0 0 C0.66 0 1.32 0 2 0 C2 1.65 2 3.3 2 5 C-1.3 5.33 -4.6 5.66 -8 6 C-8 6.66 -8 7.32 -8 8 C-5.69 8 -3.38 8 -1 8 C-1 8.33 -1 8.66 -1 9 C-1.67546875 9.04898438 -2.3509375 9.09796875 -3.046875 9.1484375 C-3.93890625 9.22320312 -4.8309375 9.29796875 -5.75 9.375 C-7.07257813 9.47941406 -7.07257813 9.47941406 -8.421875 9.5859375 C-10.99308676 9.86678083 -10.99308676 9.86678083 -13.078125 11.0390625 C-15 12 -15 12 -19 12 C-19 10.68 -19 9.36 -19 8 C-12.058915 5.09382609 -6.54290017 3.5053836 1 4 C0.67 2.68 0.34 1.36 0 0 Z " fill="#E1732B" transform="translate(144,68)"/>
<path d="M0 0 C-2.174108 2.43990804 -3.97833646 3.57580792 -7.0625 4.625 C-9.12612616 5.33977554 -11.04484255 6.02242128 -13 7 C-13.33 7.99 -13.66 8.98 -14 10 C-14.66 10 -15.32 10 -16 10 C-17.0625 8.1875 -17.0625 8.1875 -18 6 C-17 3 -17 3 -14 1 C-11.40625 0.33203125 -11.40625 0.33203125 -8.5 -0.1875 C-7.5409375 -0.36667969 -6.581875 -0.54585937 -5.59375 -0.73046875 C-3 -1 -3 -1 0 0 Z " fill="#64B2B8" transform="translate(130,44)"/>
<path d="M0 0 C0.66 0.33 1.32 0.66 2 1 C0.3929127 4.38291876 -1.50398038 7.52008751 -3.5 10.6875 C-4.1084375 11.66074219 -4.716875 12.63398437 -5.34375 13.63671875 C-7 16 -7 16 -9 17 C-8.42415568 14.61435923 -7.77772405 12.33317216 -7 10 C-7.99 10 -8.98 10 -10 10 C-9.67 8.35 -9.34 6.7 -9 5 C-7.68 5 -6.36 5 -5 5 C-4.67 3.68 -4.34 2.36 -4 1 C-3.01 1.66 -2.02 2.32 -1 3 C-0.67 2.01 -0.34 1.02 0 0 Z " fill="#2D1D16" transform="translate(43,65)"/>
<path d="M0 0 C0.763125 0.825 1.52625 1.65 2.3125 2.5 C4.75434142 5.34055197 4.75434142 5.34055197 8 5 C8.99 6.485 8.99 6.485 10 8 C10.99 7.01 11.98 6.02 13 5 C14.32 5.66 15.64 6.32 17 7 C16.360625 7.45375 15.72125 7.9075 15.0625 8.375 C12.90297594 9.83921726 12.90297594 9.83921726 12 12 C10.35 12 8.7 12 7 12 C6.67 11.01 6.34 10.02 6 9 C5.34 8.67 4.68 8.34 4 8 C2.64499081 6.68870078 1.31328657 5.35308313 0 4 C-0.5775 3.4225 -1.155 2.845 -1.75 2.25 C-2.1625 1.8375 -2.575 1.425 -3 1 C-2.01 0.67 -1.02 0.34 0 0 Z " fill="#C86D37" transform="translate(91,96)"/>
<path d="M0 0 C2.65845673 2.37000248 4.11161791 4.81984154 5.6875 8 C6.12449219 8.86625 6.56148437 9.7325 7.01171875 10.625 C8 13 8 13 8 16 C4.04 16.33 0.08 16.66 -4 17 C-4 16.34 -4 15.68 -4 15 C-0.535 14.505 -0.535 14.505 3 14 C2.7834375 13.32453125 2.566875 12.6490625 2.34375 11.953125 C2.0653125 11.06109375 1.786875 10.1690625 1.5 9.25 C1.2215625 8.36828125 0.943125 7.4865625 0.65625 6.578125 C0 4 0 4 0 0 Z " fill="#3D2210" transform="translate(137,56)"/>
<path d="M0 0 C0.33 0 0.66 0 1 0 C1 4.29 1 8.58 1 13 C-0.65 13 -2.3 13 -4 13 C-5 12 -5 12 -5.09765625 9.71484375 C-5.08605469 8.79832031 -5.07445313 7.88179687 -5.0625 6.9375 C-5.05347656 6.01839844 -5.04445313 5.09929687 -5.03515625 4.15234375 C-5.02355469 3.44207031 -5.01195313 2.73179687 -5 2 C-4.67 2.66 -4.34 3.32 -4 4 C-2.68 3.67 -1.36 3.34 0 3 C0 2.01 0 1.02 0 0 Z " fill="#55565A" transform="translate(125,130)"/>
<path d="M0 0 C0.33 0.66 0.66 1.32 1 2 C4.465 1.505 4.465 1.505 8 1 C4.88003493 3.51392869 1.66403814 5.25600171 -1.9375 7 C-5.74157947 8.8467339 -9.40317439 10.77433995 -13 13 C-11.6213147 9.90137066 -10.02976802 7.75876568 -7.625 5.375 C-7.03976563 4.78460938 -6.45453125 4.19421875 -5.8515625 3.5859375 C-3.9895653 1.99106226 -2.23181505 0.99301022 0 0 Z " fill="#CE7130" transform="translate(118,90)"/>
<path d="M0 0 C0.33 0 0.66 0 1 0 C1.103125 1.093125 1.20625 2.18625 1.3125 3.3125 C1.98526118 6.92094632 2.24108167 7.84084652 5 10 C5 10.33 5 10.66 5 11 C-0.94 11.495 -0.94 11.495 -7 12 C-7 11.01 -7 10.02 -7 9 C-6.01 9 -5.02 9 -4 9 C-4 7.35 -4 5.7 -4 4 C-3.34 4 -2.68 4 -2 4 C-1.34 2.68 -0.68 1.36 0 0 Z " fill="#E77121" transform="translate(39,78)"/>
<path d="M0 0 C0.33 0.66 0.66 1.32 1 2 C-4.28 2.66 -9.56 3.32 -15 4 C-15 4.33 -15 4.66 -15 5 C-17.97 5 -20.94 5 -24 5 C-24 4.34 -24 3.68 -24 3 C-16.39461638 -0.56502357 -8.21250821 -0.1358687 0 0 Z " fill="#F0711C" transform="translate(143,96)"/>
<path d="M0 0 C12.50209796 -0.21003783 24.6755128 -0.39227481 37 2 C36.67 2.66 36.34 3.32 36 4 C36.99 4.33 37.98 4.66 39 5 C39 5.66 39 6.32 39 7 C38.39414063 6.80664062 37.78828125 6.61328125 37.1640625 6.4140625 C24.7210876 2.54716876 12.96590219 1.50585655 0 1 C0 0.67 0 0.34 0 0 Z " fill="#3E1F10" transform="translate(133,93)"/>
<path d="M0 0 C1.72766602 0.01353516 1.72766602 0.01353516 3.49023438 0.02734375 C6.30621193 0.05071286 9.12174158 0.08347435 11.9375 0.125 C11.9375 0.455 11.9375 0.785 11.9375 1.125 C5.9975 1.455 0.0575 1.785 -6.0625 2.125 C-6.0625 2.455 -6.0625 2.785 -6.0625 3.125 C-14.4775 3.62 -14.4775 3.62 -23.0625 4.125 C-22.7325 3.465 -22.4025 2.805 -22.0625 2.125 C-14.68189095 -0.07609926 -7.65601405 -0.1148623 0 0 Z " fill="#3E2113" transform="translate(49.0625,99.875)"/>
<path d="M0 0 C7.26 0 14.52 0 22 0 C20.68 0.33 19.36 0.66 18 1 C18 1.66 18 2.32 18 3 C12.39 3 6.78 3 1 3 C0.67 2.01 0.34 1.02 0 0 Z " fill="#F17122" transform="translate(46,85)"/>
<path d="M0 0 C6.40140935 0.46555704 11.26769829 2.14711836 17 5 C16.67 5.66 16.34 6.32 16 7 C15.34 7 14.68 7 14 7 C14 6.34 14 5.68 14 5 C10.04 5.66 6.08 6.32 2 7 C1.34 4.69 0.68 2.38 0 0 Z " fill="#16242A" transform="translate(67,47)"/>
<path d="M0 0 C5.1268295 0.12979315 10.03194735 1.17456862 15.03125 2.25 C15.9490625 2.44078125 16.866875 2.6315625 17.8125 2.828125 C20.05366577 3.29503453 22.29305083 3.76910692 24.53125 4.25 C20.7297128 6.37054018 18.71012458 6.25703386 14.40625 5.4375 C12.82457031 5.14939453 12.82457031 5.14939453 11.2109375 4.85546875 C8.53125 4.25 8.53125 4.25 6.53125 3.25 C4.4937737 3.02141886 2.45084697 2.83975722 0.40625 2.6875 C-1.23730469 2.56181641 -1.23730469 2.56181641 -2.9140625 2.43359375 C-3.75710937 2.37300781 -4.60015625 2.31242187 -5.46875 2.25 C-3.46875 0.25 -3.46875 0.25 0 0 Z " fill="#3F1E0F" transform="translate(67.46875,100.75)"/>
<path d="M0 0 C4.02103409 1.50677331 5.5593458 3.86565766 7.8125 7.4375 C8.43769531 8.40558594 9.06289062 9.37367187 9.70703125 10.37109375 C11 13 11 13 10 16 C9.39671875 15.32453125 8.7934375 14.6490625 8.171875 13.953125 C6.97304687 12.61507812 6.97304687 12.61507812 5.75 11.25 C4.96109375 10.36828125 4.1721875 9.4865625 3.359375 8.578125 C1.29407328 6.32133835 -0.81735064 4.14260074 -3 2 C-2.01 2 -1.02 2 0 2 C0 1.34 0 0.68 0 0 Z " fill="#C2713F" transform="translate(86,84)"/>
<path d="M0 0 C1.79093191 -0.08086147 3.58289628 -0.13912702 5.375 -0.1875 C6.87160156 -0.23970703 6.87160156 -0.23970703 8.3984375 -0.29296875 C9.25695312 -0.19628906 10.11546875 -0.09960938 11 0 C11.66 0.99 12.32 1.98 13 3 C12.360625 3.12375 11.72125 3.2475 11.0625 3.375 C10.381875 3.58125 9.70125 3.7875 9 4 C8.67 4.66 8.34 5.32 8 6 C8 5.34 8 4.68 8 4 C5.03 4 2.06 4 -1 4 C-0.67 2.68 -0.34 1.36 0 0 Z " fill="#E8E9EB" transform="translate(61,130)"/>
<path d="M0 0 C4.84659077 0.59104765 8.60748167 1.97944157 13 4 C9.42159906 5.19280031 6.39947646 4.92399741 2.70703125 4.66015625 C1.64798836 4.59144569 1.64798836 4.59144569 0.56755066 4.52134705 C-1.68454081 4.37395107 -3.93597808 4.21833211 -6.1875 4.0625 C-7.71545886 3.96104599 -9.24345343 3.8601281 -10.77148438 3.75976562 C-14.51476537 3.51272655 -18.2574807 3.25831193 -22 3 C-22 2.67 -22 2.34 -22 2 C-14.74 1.67 -7.48 1.34 0 1 C0 0.67 0 0.34 0 0 Z " fill="#DB7732" transform="translate(162,97)"/>
<path d="M0 0 C0.98484375 0.00902344 1.9696875 0.01804688 2.984375 0.02734375 C4.10585937 0.04474609 4.10585937 0.04474609 5.25 0.0625 C6.24 2.0425 7.23 4.0225 8.25 6.0625 C6.27 6.0625 4.29 6.0625 2.25 6.0625 C3.24 5.7325 4.23 5.4025 5.25 5.0625 C3.19766315 2.8147025 2.24332739 2.0602758 -0.75 1.0625 C-0.75 2.0525 -0.75 3.0425 -0.75 4.0625 C-2.07 4.3925 -3.39 4.7225 -4.75 5.0625 C-4.75 4.4025 -4.75 3.7425 -4.75 3.0625 C-9.205 3.5575 -9.205 3.5575 -13.75 4.0625 C-9.21239141 0.33517866 -5.79921987 -0.06903833 0 0 Z " fill="#6AA5AC" transform="translate(131.75,40.9375)"/>
<path d="M0 0 C1.32 0 2.64 0 4 0 C3.67 0.598125 3.34 1.19625 3 1.8125 C1.79212012 4.05386471 1.79212012 4.05386471 2 7 C2 7.99 2 8.98 2 10 C-1.96 8.35 -5.92 6.7 -10 5 C-10 4.67 -10 4.34 -10 4 C-9.04287109 3.81824219 -9.04287109 3.81824219 -8.06640625 3.6328125 C-7.24011719 3.46523437 -6.41382812 3.29765625 -5.5625 3.125 C-4.73878906 2.96257812 -3.91507812 2.80015625 -3.06640625 2.6328125 C-2.38449219 2.42398438 -1.70257813 2.21515625 -1 2 C-0.67 1.34 -0.34 0.68 0 0 Z " fill="#201D21" transform="translate(76,68)"/>
<path d="M0 0 C5.59305858 1.39826464 9.71990921 4.24087492 14 8 C14.33 8.66 14.66 9.32 15 10 C10.02693484 9.50269348 6.36200187 8.44697666 2 6 C3.32 5.67 4.64 5.34 6 5 C4.02 4.01 2.04 3.02 0 2 C0 1.34 0 0.68 0 0 Z " fill="#D17438" transform="translate(76,87)"/>
<path d="M0 0 C1.32 0 2.64 0 4 0 C4 2.97 4 5.94 4 9 C-0.875 8.125 -0.875 8.125 -2 7 C-2.1875 4.5625 -2.1875 4.5625 -2 2 C-1.34 1.34 -0.68 0.68 0 0 Z " fill="#28282A" transform="translate(102,134)"/>
<path d="M0 0 C0.639375 0.33 1.27875 0.66 1.9375 1 C3.76794567 2.07271225 3.76794567 2.07271225 5 2 C5 5.63 5 9.26 5 13 C4.67 13 4.34 13 4 13 C3.67 11.35 3.34 9.7 3 8 C2.67 13.61 2.34 19.22 2 25 C1.67 25 1.34 25 1 25 C1 17.74 1 10.48 1 3 C0.34 3 -0.32 3 -1 3 C-0.67 2.01 -0.34 1.02 0 0 Z " fill="#5D5E60" transform="translate(110,128)"/>
<path d="M0 0 C6.68363952 1.27984587 10.86824619 4.6479004 16 9 C15.01 9.495 15.01 9.495 14 10 C11.86328125 9.07421875 11.86328125 9.07421875 9.3125 7.6875 C5.22500943 5.55180101 1.47518398 4.07015269 -3 3 C-2.01 2.67 -1.02 2.34 0 2 C0 1.34 0 0.68 0 0 Z " fill="#4B240E" transform="translate(80,94)"/>
<path d="M0 0 C0.66 0.33 1.32 0.66 2 1 C2 2.65 2 4.3 2 6 C2.928125 5.62875 3.85625 5.2575 4.8125 4.875 C5.864375 4.58625 6.91625 4.2975 8 4 C8.99 4.66 9.98 5.32 11 6 C10.34 6 9.68 6 9 6 C8.67 6.99 8.34 7.98 8 9 C4.66666667 9 1.33333333 9 -2 9 C-1.34 6.03 -0.68 3.06 0 0 Z " fill="#271A22" transform="translate(67,48)"/>
<path d="M0 0 C-1.485 1.485 -1.485 1.485 -3 3 C-1.35 3 0.3 3 2 3 C2 3.99 2 4.98 2 6 C0.02 6 -1.96 6 -4 6 C-4 5.01 -4 4.02 -4 3 C-5.65 4.32 -7.3 5.64 -9 7 C-9.3125 4.6875 -9.3125 4.6875 -9 2 C-5.85636787 -0.61969344 -3.87356388 -1.57811862 0 0 Z " fill="#E1E2E4" transform="translate(68,137)"/>
<path d="M0 0 C1.98 0 3.96 0 6 0 C5.4359146 3.94859783 4.2568294 6.70879046 2 10 C1.67 10 1.34 10 1 10 C1 8.35 1 6.7 1 5 C0.01 5.33 -0.98 5.66 -2 6 C-1.34 4.02 -0.68 2.04 0 0 Z " fill="#CA7137" transform="translate(60,49)"/>
<path d="M0 0 C3.3 0 6.6 0 10 0 C10 3 10 3 9 6 C8.67 5.34 8.34 4.68 8 4 C5.03 4 2.06 4 -1 4 C-0.67 2.68 -0.34 1.36 0 0 Z " fill="#EBECEF" transform="translate(79,130)"/>
<path d="M0 0 C0.66 0 1.32 0 2 0 C1.67 1.65 1.34 3.3 1 5 C0.34 5 -0.32 5 -1 5 C-1 5.99 -1 6.98 -1 8 C-1.66 8 -2.32 8 -3 8 C-3 9.32 -3 10.64 -3 12 C-3.99 12 -4.98 12 -6 12 C-6 10.35 -6 8.7 -6 7 C-5.34 7 -4.68 7 -4 7 C-3.71125 6.21625 -3.4225 5.4325 -3.125 4.625 C-2 2 -2 2 0 0 Z " fill="#261B18" transform="translate(104,83)"/>
<path d="M0 0 C2.9746228 2.82984027 5.39997658 5.76065023 7.75 9.125 C8.67039063 10.42824219 8.67039063 10.42824219 9.609375 11.7578125 C11 14 11 14 11 16 C10.01 16.33 9.02 16.66 8 17 C6.66161267 14.54429825 5.32913768 12.08570084 4 9.625 C3.6184375 8.92632812 3.236875 8.22765625 2.84375 7.5078125 C0 2.2265625 0 2.2265625 0 0 Z " fill="#B56B3A" transform="translate(147,54)"/>
<path d="M0 0 C1.16015625 0.19916016 1.16015625 0.19916016 2.34375 0.40234375 C8.21975787 1.39864707 14.07932027 2.31684465 20 3 C20 3.66 20 4.32 20 5 C17.04335481 6.4783226 14.25770263 6.06032783 11 6 C11 5.34 11 4.68 11 4 C7.37 3.67 3.74 3.34 0 3 C0 2.01 0 1.02 0 0 Z " fill="#EC7321" transform="translate(64,95)"/>
<path d="M0 0 C0 0.99 0 1.98 0 3 C-2.62594784 2.8863485 -5.25011547 2.75960946 -7.875 2.625 C-8.62136719 2.5940625 -9.36773437 2.563125 -10.13671875 2.53125 C-15.7734375 2.2265625 -15.7734375 2.2265625 -18 0 C-16.86111328 0.01740234 -16.86111328 0.01740234 -15.69921875 0.03515625 C-14.70535156 0.04417969 -13.71148437 0.05320312 -12.6875 0.0625 C-11.70136719 0.07410156 -10.71523437 0.08570312 -9.69921875 0.09765625 C-0.73084677 -0.22681452 -0.73084677 -0.22681452 0 0 Z " fill="#261B22" transform="translate(160,79)"/>
<path d="M0 0 C3 1 3 1 4 3 C5.32 3 6.64 3 8 3 C8.33 5.31 8.66 7.62 9 10 C8.67 9.34 8.34 8.68 8 8 C3.64115911 5.62245042 -0.16543441 5.83611642 -5 6 C-5 5.34 -5 4.68 -5 4 C-4.360625 3.71125 -3.72125 3.4225 -3.0625 3.125 C-0.84793921 2.17176549 -0.84793921 2.17176549 0 0 Z " fill="#1C3039" transform="translate(101,24)"/>
<path d="M0 0 C0.33 0 0.66 0 1 0 C1.08078641 2.12438339 1.13909141 4.2496323 1.1875 6.375 C1.22230469 7.55835938 1.25710937 8.74171875 1.29296875 9.9609375 C1.19628906 10.96382812 1.09960938 11.96671875 1 13 C0.01 13.66 -0.98 14.32 -2 15 C-2.33 10.71 -2.66 6.42 -3 2 C-2.34 2.66 -1.68 3.32 -1 4 C-0.67 2.68 -0.34 1.36 0 0 Z " fill="#45464A" transform="translate(40,133)"/>
<path d="M0 0 C2.97 0 5.94 0 9 0 C9 0.66 9 1.32 9 2 C4.545 3.485 4.545 3.485 0 5 C-0.33 6.98 -0.66 8.96 -1 11 C-1.33 11 -1.66 11 -2 11 C-2.33 8.36 -2.66 5.72 -3 3 C-2.01 2.67 -1.02 2.34 0 2 C0 1.34 0 0.68 0 0 Z " fill="#343538" transform="translate(148,134)"/>
<path d="M0 0 C-0.33 0.99 -0.66 1.98 -1 3 C-0.01 3.33 0.98 3.66 2 4 C-3.75 6 -3.75 6 -6 6 C-6.99 6.33 -7.98 6.66 -9 7 C-8.02086745 1.32103121 -5.73500486 -0.46500039 0 0 Z " fill="#ECECEE" transform="translate(104,130)"/>
<path d="M0 0 C1.32 0.66 2.64 1.32 4 2 C3.25556641 2.43699219 3.25556641 2.43699219 2.49609375 2.8828125 C-2.42275853 5.8509245 -6.75172176 9.13672197 -11 13 C-9.63422544 8.71506993 -7.79318655 6.56854295 -4.375 3.6875 C-3.55773437 2.99011719 -2.74046875 2.29273437 -1.8984375 1.57421875 C-0.95871094 0.79498047 -0.95871094 0.79498047 0 0 Z " fill="#5F270B" transform="translate(116,88)"/>
<path d="M0 0 C2.35694954 0.09031574 4.71153582 0.24688128 7.0625 0.4375 C8.35285156 0.53933594 9.64320312 0.64117187 10.97265625 0.74609375 C12.47119141 0.87177734 12.47119141 0.87177734 14 1 C13.67 1.99 13.34 2.98 13 4 C11.41590006 3.88512252 9.83271037 3.75765492 8.25 3.625 C7.36828125 3.55539063 6.4865625 3.48578125 5.578125 3.4140625 C3.00933618 3.00149945 1.24158985 2.28839043 -1 1 C-0.67 0.67 -0.34 0.34 0 0 Z " fill="#211E20" transform="translate(57,79)"/>
<path d="M0 0 C5.19694614 6.20785896 5.28873159 14.20424695 5 22 C4.34 22 3.68 22 3 22 C2.80083984 20.28490234 2.80083984 20.28490234 2.59765625 18.53515625 C2.4194969 17.0442438 2.24109918 15.55335982 2.0625 14.0625 C1.93198242 12.93038086 1.93198242 12.93038086 1.79882812 11.77539062 C1.65675901 8.07812542 1.65675901 8.07812542 0 5 C-0.04063832 3.33382885 -0.042721 1.66611905 0 0 Z " fill="#192C38" transform="translate(95,66)"/>
<path d="M0 0 C-3.40934385 2.2728959 -6.94820023 3.98662154 -10.625 5.78125 C-13.16445403 7.02756402 -13.16445403 7.02756402 -16 9 C-15.9375 6.6875 -15.9375 6.6875 -15 4 C-10.0075132 1.41130314 -5.6111016 -0.15165139 0 0 Z " fill="#43210F" transform="translate(133,73)"/>
<path d="M0 0 C0.99 0.33 1.98 0.66 3 1 C2.938125 1.94875 2.87625 2.8975 2.8125 3.875 C2.874375 4.90625 2.93625 5.9375 3 7 C3.99 7.66 4.98 8.32 6 9 C5.34 10.32 4.68 11.64 4 13 C2.96674014 11.57140593 1.94872366 10.13177617 0.9375 8.6875 C0.36902344 7.88699219 -0.19945312 7.08648437 -0.78515625 6.26171875 C-1.18605469 5.51535156 -1.58695313 4.76898438 -2 4 C-1 1 -1 1 0 0 Z " fill="#301A15" transform="translate(154,57)"/>
<path d="M0 0 C-0.33 0.66 -0.66 1.32 -1 2 C-5.455 1.01 -5.455 1.01 -10 0 C-10 0.33 -10 0.66 -10 1 C-12.64 1 -15.28 1 -18 1 C-16.27493218 -1.20425332 -15.05657648 -1.98114117 -12.375 -2.875 C-7.81159501 -3.044015 -4.2067727 -1.65466393 0 0 Z " fill="#142327" transform="translate(99,109)"/>
<path d="M0 0 C0.66 0.33 1.32 0.66 2 1 C1.27683594 2.06927734 1.27683594 2.06927734 0.5390625 3.16015625 C-2.89341459 8.36491232 -5.77133288 12.85666442 -7 19 C-7.66 18.67 -8.32 18.34 -9 18 C-7.14086809 11.10164214 -4.20484217 5.75614317 0 0 Z " fill="#19323A" transform="translate(112,56)"/>
<path d="M0 0 C0 0.99 0 1.98 0 3 C-0.99 3.495 -0.99 3.495 -2 4 C-2.66 3.34 -3.32 2.68 -4 2 C-5.65 2.66 -7.3 3.32 -9 4 C-10 3 -10 3 -11 0 C-6.94952424 -1.35015859 -4.2079832 -0.62084998 0 0 Z M-4 3 C-3.34 3.66 -2.68 4.32 -2 5 C-2.66 5 -3.32 5 -4 5 C-4 4.34 -4 3.68 -4 3 Z " fill="#18191E" transform="translate(65,147)"/>
<path d="M0 0 C0.99 0 1.98 0 3 0 C3 0.66 3 1.32 3 2 C4.32 2 5.64 2 7 2 C7.33 3.98 7.66 5.96 8 8 C7.01 8.33 6.02 8.66 5 9 C4.731875 8.195625 4.46375 7.39125 4.1875 6.5625 C3.795625 5.716875 3.40375 4.87125 3 4 C2.01 3.67 1.02 3.34 0 3 C0 2.01 0 1.02 0 0 Z " fill="#2D1D15" transform="translate(87,82)"/>
<path d="M0 0 C1.32 0.33 2.64 0.66 4 1 C3.01 4.96 2.02 8.92 1 13 C0.67 13 0.34 13 0 13 C-0.66 9.7 -1.32 6.4 -2 3 C-1.34 3 -0.68 3 0 3 C0 2.01 0 1.02 0 0 Z " fill="#1B2F39" transform="translate(100,57)"/>
<path d="M0 0 C2.64 0 5.28 0 8 0 C7.34 1.65 6.68 3.3 6 5 C3.69 4.67 1.38 4.34 -1 4 C-0.67 2.68 -0.34 1.36 0 0 Z " fill="#68B3B9" transform="translate(66,41)"/>
<path d="M0 0 C1 3 1 3 1 5 C-3.1196377 6.29243536 -6.66831683 7.26252625 -11 7 C-9.59257978 4.18515955 -7.74442408 3.72516601 -4.9375 2.375 C-4.01839844 1.92898437 -3.09929687 1.48296875 -2.15234375 1.0234375 C-1.44207031 0.68570313 -0.73179688 0.34796875 0 0 Z " fill="#CA6C35" transform="translate(113,100)"/>
<path d="M0 0 C1.6254308 0.14095064 3.25034051 0.28792087 4.875 0.4375 C5.77992187 0.51871094 6.68484375 0.59992188 7.6171875 0.68359375 C10 1 10 1 12 2 C12 2.99 12 3.98 12 5 C7.71 4.01 3.42 3.02 -1 2 C-0.67 1.34 -0.34 0.68 0 0 Z " fill="#381C1D" transform="translate(68,91)"/>
<path d="M0 0 C0.66 0.33 1.32 0.66 2 1 C0.02 3.97 -1.96 6.94 -4 10 C-4.33 9.01 -4.66 8.02 -5 7 C-6.32 7 -7.64 7 -9 7 C-8.67 6.01 -8.34 5.02 -8 4 C-5.67793475 3.29508733 -3.34406932 2.62787571 -1 2 C-0.67 1.34 -0.34 0.68 0 0 Z " fill="#211F23" transform="translate(50,56)"/>
<path d="M0 0 C0.99 0 1.98 0 3 0 C3.83819158 1.62249941 4.6704116 3.24808497 5.5 4.875 C5.9640625 5.77992187 6.428125 6.68484375 6.90625 7.6171875 C8 10 8 10 8 12 C4.3392481 10.77974937 4.07660559 9.873509 2.3125 6.5625 C1.87550781 5.75941406 1.43851563 4.95632812 0.98828125 4.12890625 C0 2 0 2 0 0 Z " fill="#391F15" transform="translate(146,58)"/>
<path d="M0 0 C-0.63808594 0.19335938 -1.27617188 0.38671875 -1.93359375 0.5859375 C-2.75988281 0.84632812 -3.58617187 1.10671875 -4.4375 1.375 C-5.67306641 1.75785156 -5.67306641 1.75785156 -6.93359375 2.1484375 C-9.17798016 2.80882227 -9.17798016 2.80882227 -10 5 C-12.06640625 5.4140625 -12.06640625 5.4140625 -14.5625 5.625 C-15.38878906 5.69976562 -16.21507812 5.77453125 -17.06640625 5.8515625 C-18.02353516 5.92503906 -18.02353516 5.92503906 -19 6 C-15.9990408 3.53694858 -13.13811489 2.08930603 -9.5 0.75 C-8.5615625 0.39421875 -7.623125 0.0384375 -6.65625 -0.328125 C-3.92325523 -1.01941191 -2.60719656 -0.95925156 0 0 Z " fill="#B76F42" transform="translate(46,96)"/>
<path d="M0 0 C0 0.99 0 1.98 0 3 C-2.41507328 3.39049692 -4.83066712 3.76277086 -7.25 4.125 C-8.27287109 4.29322266 -8.27287109 4.29322266 -9.31640625 4.46484375 C-13.16969746 5.02600266 -15.7280825 5.27684981 -19 3 C-16.20869212 2.49792321 -13.41699129 1.99824925 -10.625 1.5 C-9.8309375 1.35691406 -9.036875 1.21382812 -8.21875 1.06640625 C-2.2265625 0 -2.2265625 0 0 0 Z " fill="#192934" transform="translate(136,38)"/>
<path d="M0 0 C4.455 0.99 4.455 0.99 9 2 C9 2.99 9 3.98 9 5 C7.02 5.66 5.04 6.32 3 7 C2.34 6.34 1.68 5.68 1 5 C1.33 4.01 1.66 3.02 2 2 C1.34 2 0.68 2 0 2 C0 1.34 0 0.68 0 0 Z " fill="#292A2E" transform="translate(97,145)"/>
<path d="M0 0 C2.31 0.33 4.62 0.66 7 1 C7 1.33 7 1.66 7 2 C5.02 2.33 3.04 2.66 1 3 C1 4.32 1 5.64 1 7 C1.66 7.33 2.32 7.66 3 8 C0 8 0 8 -1.38671875 6.6875 C-2.59114583 5.125 -3.79557292 3.5625 -5 2 C-3.68 2.33 -2.36 2.66 -1 3 C-0.67 2.01 -0.34 1.02 0 0 Z " fill="#1E2F39" transform="translate(93,45)"/>
<path d="M0 0 C0.66 0.33 1.32 0.66 2 1 C2 1.66 2 2.32 2 3 C0.38007835 3.86375896 -1.24611861 4.71575854 -2.875 5.5625 C-4.23238281 6.27599609 -4.23238281 6.27599609 -5.6171875 7.00390625 C-6.40351562 7.33261719 -7.18984375 7.66132812 -8 8 C-8.66 7.67 -9.32 7.34 -10 7 C-3.23076923 1.15384615 -3.23076923 1.15384615 0 0 Z " fill="#501D08" transform="translate(117,95)"/>
<path d="M0 0 C0.33 0 0.66 0 1 0 C1 1.65 1 3.3 1 5 C0.01 5 -0.98 5 -2 5 C-2 5.99 -2 6.98 -2 8 C0.31 8 2.62 8 5 8 C5 8.33 5 8.66 5 9 C1.37 9.33 -2.26 9.66 -6 10 C-4.07119658 6.59244728 -2.1723491 3.25852365 0 0 Z " fill="#BD6B3E" transform="translate(34,82)"/>
<path d="M0 0 C0.66 0 1.32 0 2 0 C1.67 1.32 1.34 2.64 1 4 C1.69867188 3.97679688 2.39734375 3.95359375 3.1171875 3.9296875 C4.02726562 3.91164063 4.93734375 3.89359375 5.875 3.875 C6.77992187 3.85179688 7.68484375 3.82859375 8.6171875 3.8046875 C11 4 11 4 13 6 C9.04 6 5.08 6 1 6 C0.67 6.66 0.34 7.32 0 8 C-0.79953138 4.71303767 -1.09658936 3.28976808 0 0 Z " fill="#D77539" transform="translate(55,68)"/>
<path d="M0 0 C2.31 0 4.62 0 7 0 C7 0.66 7 1.32 7 2 C6.01 2 5.02 2 4 2 C4 3.32 4 4.64 4 6 C4.66 6 5.32 6 6 6 C6 7.65 6 9.3 6 11 C2.90407165 7.4912812 1.25805377 4.50802601 0 0 Z " fill="#D2743D" transform="translate(135,50)"/>
<path d="M0 0 C2.31 0 4.62 0 7 0 C7 1.32 7 2.64 7 4 C4.36 4 1.72 4 -1 4 C-0.67 2.68 -0.34 1.36 0 0 Z " fill="#EAEBED" transform="translate(149,130)"/>
<path d="M0 0 C0 0.66 0 1.32 0 2 C-1.89492006 2.33848652 -3.79098466 2.67056911 -5.6875 3 C-6.74324219 3.185625 -7.79898438 3.37125 -8.88671875 3.5625 C-11.64904062 3.95068074 -14.21742043 4.08259976 -17 4 C-11.77468437 0.51645625 -6.1868663 -0.30934332 0 0 Z " fill="#3D1C12" transform="translate(124,103)"/>
<path d="M0 0 C0 0.99 0 1.98 0 3 C-4.52092968 4.45606519 -7.51648796 3.27032841 -12 2 C-12 1.67 -12 1.34 -12 1 C-7.58774263 -0.47075246 -4.51718381 -1.36884358 0 0 Z " fill="#402315" transform="translate(76,82)"/>
<path d="M0 0 C0.93065133 2.60582371 1.14917407 3.64198224 0.0625 6.25 C-0.4634375 7.11625 -0.4634375 7.11625 -1 8 C1.31 8.33 3.62 8.66 6 9 C6 9.33 6 9.66 6 10 C2.7 10 -0.6 10 -4 10 C-2.8905928 6.51329166 -1.73662334 3.22515763 0 0 Z " fill="#48210D" transform="translate(60,62)"/>
<path d="M0 0 C0.33 0.66 0.66 1.32 1 2 C1.99 2.33 2.98 2.66 4 3 C3.071875 3.185625 3.071875 3.185625 2.125 3.375 C-0.19120832 3.87197356 -0.19120832 3.87197356 -2 6 C-4.31 5.34 -6.62 4.68 -9 4 C-9 4.99 -9 5.98 -9 7 C-9.66 6.67 -10.32 6.34 -11 6 C-10.67 5.01 -10.34 4.02 -10 3 C-7.96875 2.3046875 -7.96875 2.3046875 -5.5 1.875 C-2.46069634 1.52112584 -2.46069634 1.52112584 0 0 Z " fill="#2E2F33" transform="translate(162,144)"/>
<path d="M0 0 C0.33 0 0.66 0 1 0 C2.33257403 12.66970387 2.33257403 12.66970387 1 18 C0.67 18 0.34 18 0 18 C-0.66 13.05 -1.32 8.1 -2 3 C-1.34 3 -0.68 3 0 3 C0 2.01 0 1.02 0 0 Z " fill="#59868F" transform="translate(100,70)"/>
<path d="M0 0 C1.8253125 0.2784375 1.8253125 0.2784375 3.6875 0.5625 C7.02977939 0.98993182 9.71968417 0.92258883 13 0 C12.67 0.99 12.34 1.98 12 3 C7.545 3.495 7.545 3.495 3 4 C3 3.34 3 2.68 3 2 C2.01 1.67 1.02 1.34 0 1 C0 0.67 0 0.34 0 0 Z " fill="#181F2C" transform="translate(63,68)"/>
<path d="M0 0 C-0.639375 0.433125 -1.27875 0.86625 -1.9375 1.3125 C-4.26746003 2.91239177 -4.26746003 2.91239177 -5 6 C-5.66 6 -6.32 6 -7 6 C-8.0625 4.125 -8.0625 4.125 -9 2 C-8 0 -8 0 -6.1875 -0.6875 C-3.81180233 -1.02688538 -2.26664171 -0.72856341 0 0 Z " fill="#69B8C0" transform="translate(121,48)"/>
<path d="M0 0 C0.33 0 0.66 0 1 0 C2 4 3 8 4 12 C-0.70394737 10.55263158 -0.70394737 10.55263158 -1.9375 8.25 C-2.02223882 5.19940251 -1.09110815 2.82404462 0 0 Z " fill="#142329" transform="translate(91,34)"/>
<path d="M0 0 C0.67546875 0.08378906 1.3509375 0.16757812 2.046875 0.25390625 C2.93890625 0.35574219 3.8309375 0.45757812 4.75 0.5625 C6.07257813 0.71912109 6.07257813 0.71912109 7.421875 0.87890625 C9.88432451 0.99456676 11.66538064 0.73638695 14 0 C12 3 12 3 9.25 3.875 C5.34709242 4.02511183 3.31599474 2.9738064 0 1 C0 0.67 0 0.34 0 0 Z " fill="#629BA2" transform="translate(94,43)"/>
<path d="M0 0 C0.99 0.66 1.98 1.32 3 2 C2.6875 3.9375 2.6875 3.9375 2 6 C1.01 6.33 0.02 6.66 -1 7 C-1.33 7.66 -1.66 8.32 -2 9 C-2.66 9 -3.32 9 -4 9 C-4.33 7.68 -4.66 6.36 -5 5 C-3.68 5 -2.36 5 -1 5 C-0.67 3.35 -0.34 1.7 0 0 Z " fill="#27282C" transform="translate(25,142)"/>
<path d="M0 0 C0.66 0 1.32 0 2 0 C2 0.66 2 1.32 2 2 C2.763125 1.62875 3.52625 1.2575 4.3125 0.875 C5.199375 0.58625 6.08625 0.2975 7 0 C7.99 0.66 8.98 1.32 10 2 C10 2.66 10 3.32 10 4 C7.03 3.505 7.03 3.505 4 3 C3.67 3.99 3.34 4.98 3 6 C2.01 4.02 1.02 2.04 0 0 Z " fill="#2C1C14" transform="translate(166,80)"/>
<path d="M0 0 C0 0.66 0 1.32 0 2 C0.66 2.33 1.32 2.66 2 3 C1.01 3.99 0.02 4.98 -1 6 C-1.99 5.34 -2.98 4.68 -4 4 C-4.99 3.67 -5.98 3.34 -7 3 C-4.49955934 -0.00052879 -4.2621484 0 0 0 Z " fill="#18191C" transform="translate(97,145)"/>
<path d="M0 0 C3.63 0.66 7.26 1.32 11 2 C10.34 3.32 9.68 4.64 9 6 C8.34 6 7.68 6 7 6 C6.67 5.34 6.34 4.68 6 4 C5.01 4 4.02 4 3 4 C1.3125 2.5625 1.3125 2.5625 0 1 C0 0.67 0 0.34 0 0 Z " fill="#292A2D" transform="translate(76,145)"/>
<path d="M0 0 C2.125 0.9375 2.125 0.9375 4 2 C3.360625 2.45375 2.72125 2.9075 2.0625 3.375 C-0.09702406 4.83921726 -0.09702406 4.83921726 -1 7 C-2.65 7 -4.3 7 -6 7 C-5.67 6.34 -5.34 5.68 -5 5 C-4.34 5 -3.68 5 -3 5 C-2.87625 4.360625 -2.7525 3.72125 -2.625 3.0625 C-2.41875 2.381875 -2.2125 1.70125 -2 1 C-1.34 0.67 -0.68 0.34 0 0 Z " fill="#8B481F" transform="translate(104,101)"/>
<path d="M0 0 C1.65 0 3.3 0 5 0 C5.33 0.99 5.66 1.98 6 3 C4.68 3 3.36 3 2 3 C2 3.66 2 4.32 2 5 C0.02 5.33 -1.96 5.66 -4 6 C-4 5.34 -4 4.68 -4 4 C-2.68 4 -1.36 4 0 4 C0 2.68 0 1.36 0 0 Z " fill="#251A1D" transform="translate(131,68)"/>
<path d="M0 0 C0.66 0.33 1.32 0.66 2 1 C1.67 1.99 1.34 2.98 1 4 C3.31 4.33 5.62 4.66 8 5 C8 5.33 8 5.66 8 6 C4.7 6 1.4 6 -2 6 C-1.125 1.125 -1.125 1.125 0 0 Z " fill="#709EA8" transform="translate(64,41)"/>
<path d="M0 0 C1.65 0.33 3.3 0.66 5 1 C5.33 1.99 5.66 2.98 6 4 C3.69 4.33 1.38 4.66 -1 5 C-1.33 4.34 -1.66 3.68 -2 3 C-1.34 3 -0.68 3 0 3 C0 2.01 0 1.02 0 0 Z " fill="#68B5BB" transform="translate(131,42)"/>
<path d="M0 0 C0.66 0 1.32 0 2 0 C2 2.31 2 4.62 2 7 C0.68 7 -0.64 7 -2 7 C-2.125 4.625 -2.125 4.625 -2 2 C-1.34 1.34 -0.68 0.68 0 0 Z " fill="#FAFBFB" transform="translate(109,146)"/>
<path d="M0 0 C0.33 0 0.66 0 1 0 C1.103125 1.093125 1.20625 2.18625 1.3125 3.3125 C1.97307727 6.85559629 2.2027092 7.93243723 5 10 C4.01 10.495 4.01 10.495 3 11 C2.67 11.66 2.34 12.32 2 13 C1.01 12.34 0.02 11.68 -1 11 C-0.67 7.37 -0.34 3.74 0 0 Z " fill="#434447" transform="translate(92,134)"/>
<path d="M0 0 C0.66 0.99 1.32 1.98 2 3 C-0.31 5.97 -2.62 8.94 -5 12 C-5.33 11.34 -5.66 10.68 -6 10 C-5.0390625 7.87109375 -5.0390625 7.87109375 -3.625 5.4375 C-3.16351563 4.63183594 -2.70203125 3.82617188 -2.2265625 2.99609375 C-1 1 -1 1 0 0 Z " fill="#C56F3E" transform="translate(109,90)"/>
<path d="M0 0 C6.75 -0.125 6.75 -0.125 9 1 C9 1.66 9 2.32 9 3 C10.32 3.33 11.64 3.66 13 4 C12.67 4.66 12.34 5.32 12 6 C8.04 4.35 4.08 2.7 0 1 C0 0.67 0 0.34 0 0 Z " fill="#4A2010" transform="translate(66,72)"/>
<path d="M0 0 C0.33 0.66 0.66 1.32 1 2 C-0.21484375 4.6015625 -0.21484375 4.6015625 -1.9375 7.625 C-2.50339844 8.62789062 -3.06929687 9.63078125 -3.65234375 10.6640625 C-4.09707031 11.43492188 -4.54179688 12.20578125 -5 13 C-5.66 13 -6.32 13 -7 13 C-6.36610765 9.50155614 -4.94822306 7.15913124 -2.9375 4.25 C-2.38964844 3.45078125 -1.84179688 2.6515625 -1.27734375 1.828125 C-0.85582031 1.22484375 -0.43429688 0.6215625 0 0 Z " fill="#AB6B46" transform="translate(54,53)"/>
<path d="M0 0 C0.66 1.32 1.32 2.64 2 4 C-0.97 4 -3.94 4 -7 4 C-7.33 3.01 -7.66 2.02 -8 1 C-5.07175348 0.02391783 -3.04386724 -0.08226668 0 0 Z " fill="#6BB7C1" transform="translate(86,46)"/>
<path d="M0 0 C0 0.66 0 1.32 0 2 C0.66 2.33 1.32 2.66 2 3 C0.35 3.33 -1.3 3.66 -3 4 C-3 6.97 -3 9.94 -3 13 C-3.33 13 -3.66 13 -4 13 C-4 9.04 -4 5.08 -4 1 C-2 0 -2 0 0 0 Z " fill="#57585C" transform="translate(78,132)"/>
<path d="M0 0 C0.66 0 1.32 0 2 0 C2 0.66 2 1.32 2 2 C3.32 2.33 4.64 2.66 6 3 C6.33 5.31 6.66 7.62 7 10 C3.60582235 6.87378374 1.3937282 4.43458973 0 0 Z " fill="#3C1D0C" transform="translate(159,70)"/>
<path d="M0 0 C0 1.32 0 2.64 0 4 C-1.98 4.33 -3.96 4.66 -6 5 C-6 3.68 -6 2.36 -6 1 C-4 0 -4 0 0 0 Z " fill="#122130" transform="translate(38,66)"/>
<path d="M0 0 C1.32 0.99 2.64 1.98 4 3 C3.67 4.32 3.34 5.64 3 7 C0.525 6.01 0.525 6.01 -2 5 C-2 4.01 -2 3.02 -2 2 C-1.34 2 -0.68 2 0 2 C0 1.34 0 0.68 0 0 Z " fill="#6AB3BE" transform="translate(94,56)"/>
<path d="M0 0 C0.66 0.66 1.32 1.32 2 2 C2.66 1.34 3.32 0.68 4 0 C4 2.31 4 4.62 4 7 C2.68 7 1.36 7 0 7 C0 4.69 0 2.38 0 0 Z " fill="#1E1F23" transform="translate(121,136)"/>
<path d="M0 0 C0 0.66 0 1.32 0 2 C-3.96 2.66 -7.92 3.32 -12 4 C-12 3.34 -12 2.68 -12 2 C-7.8794254 0.00214565 -4.54805635 -0.17835515 0 0 Z " fill="#1F2024" transform="translate(87,134)"/>
<path d="M0 0 C3.3 0 6.6 0 10 0 C8.68 0.99 7.36 1.98 6 3 C6.66 3 7.32 3 8 3 C7.67 3.66 7.34 4.32 7 5 C4.525 4.01 4.525 4.01 2 3 C2 2.34 2 1.68 2 1 C1.34 0.67 0.68 0.34 0 0 Z " fill="#E8E9E9" transform="translate(168,130)"/>
<path d="M0 0 C3.55780196 0.60990891 6.6828589 1.5783681 10 3 C6.6888987 4.10370043 4.75251051 3.92673641 1.3125 3.5625 C0.31863281 3.46066406 -0.67523438 3.35882813 -1.69921875 3.25390625 C-2.45847656 3.17011719 -3.21773437 3.08632812 -4 3 C-2.68 2.67 -1.36 2.34 0 2 C0 1.34 0 0.68 0 0 Z " fill="#B16C3F" transform="translate(165,98)"/>
<path d="M0 0 C0.99 0.33 1.98 0.66 3 1 C0.19195732 3.96404505 -2.18315774 6.44499019 -6 8 C-4.55746343 4.63408134 -2.66735273 2.48952921 0 0 Z " fill="#C57A4B" transform="translate(111,95)"/>
<path d="M0 0 C2.64 0 5.28 0 8 0 C8 0.66 8 1.32 8 2 C5.36 2.66 2.72 3.32 0 4 C-0.33 3.34 -0.66 2.68 -1 2 C-0.67 1.34 -0.34 0.68 0 0 Z " fill="#311E23" transform="translate(119,94)"/>
<path d="M0 0 C2.64 0 5.28 0 8 0 C8 0.99 8 1.98 8 3 C5.03 2.67 2.06 2.34 -1 2 C-0.67 1.34 -0.34 0.68 0 0 Z " fill="#1F1F20" transform="translate(35,92)"/>
<path d="M0 0 C0.66 1.32 1.32 2.64 2 4 C0.68 4.99 -0.64 5.98 -2 7 C-2.66 5.02 -3.32 3.04 -4 1 C-2.68 0.67 -1.36 0.34 0 0 Z " fill="#1C2013" transform="translate(133,50)"/>
<path d="M0 0 C-0.33 1.32 -0.66 2.64 -1 4 C-5.455 4.495 -5.455 4.495 -10 5 C-6.95224467 1.95224467 -4.42002798 0 0 0 Z " fill="#192B37" transform="translate(128,48)"/>
<path d="M0 0 C0.66 0.33 1.32 0.66 2 1 C2.625 4.0625 2.625 4.0625 3 7 C1.35 7 -0.3 7 -2 7 C-1.34 4.69 -0.68 2.38 0 0 Z " fill="#3B3C3E" transform="translate(28,131)"/>
<path d="M0 0 C3.85645121 -0.22036864 6.49223216 0.39644899 10 2 C9.34 3.32 8.68 4.64 8 6 C7.67 5.01 7.34 4.02 7 3 C5.824375 3.0928125 5.824375 3.0928125 4.625 3.1875 C3.75875 3.125625 2.8925 3.06375 2 3 C1.34 2.01 0.68 1.02 0 0 Z " fill="#381D0F" transform="translate(92,106)"/>
<path d="M0 0 C2.52588702 2.36292656 3.88820837 3.66462511 5 7 C1.37 6.67 -2.26 6.34 -6 6 C-6 5.67 -6 5.34 -6 5 C-3.69 5 -1.38 5 1 5 C0.67 3.35 0.34 1.7 0 0 Z " fill="#C0713C" transform="translate(168,85)"/>
<path d="M0 0 C0.33 0 0.66 0 1 0 C1.125 2.875 1.125 2.875 1 6 C0.34 6.66 -0.32 7.32 -1 8 C-1.33 7.01 -1.66 6.02 -2 5 C-2.99 6.485 -2.99 6.485 -4 8 C-4.66 7.67 -5.32 7.34 -6 7 C-4.71937515 5.2925002 -3.38232443 3.62626404 -2 2 C-1.34 2 -0.68 2 0 2 C0 1.34 0 0.68 0 0 Z " fill="#D36D30" transform="translate(41,74)"/>
<path d="M0 0 C2.97 0 5.94 0 9 0 C6.75 2.0625 6.75 2.0625 4 4 C1.6875 3.75 1.6875 3.75 0 3 C0 2.01 0 1.02 0 0 Z " fill="#192937" transform="translate(129,47)"/>
<path d="M0 0 C0 3 0 3 -1 6 C-0.34 6 0.32 6 1 6 C0.34 7.65 -0.32 9.3 -1 11 C-1.66 10.34 -2.32 9.68 -3 9 C-2.53846154 2.53846154 -2.53846154 2.53846154 0 0 Z " fill="#67A4AC" transform="translate(95,31)"/>
<path d="M0 0 C1.98 0 3.96 0 6 0 C6.33 0.66 6.66 1.32 7 2 C6.01 2.99 5.02 3.98 4 5 C3.01 4.67 2.02 4.34 1 4 C0.3125 1.9375 0.3125 1.9375 0 0 Z " fill="#69BBBC" transform="translate(86,51)"/>
<path d="M0 0 C3.125 -0.1875 3.125 -0.1875 6 0 C6 0.66 6 1.32 6 2 C4.02253397 2.73080266 2.01927511 3.39421747 0 4 C-0.66 3.67 -1.32 3.34 -2 3 C-1.34 2.01 -0.68 1.02 0 0 Z " fill="#FCFDFE" transform="translate(150,137)"/>
<path d="M0 0 C3.63 0.33 7.26 0.66 11 1 C6.46780033 3.26609984 4.82227075 2.92735976 0 2 C0 1.34 0 0.68 0 0 Z " fill="#1B2017" transform="translate(77,105)"/>
<path d="M0 0 C0.8353125 0.556875 0.8353125 0.556875 1.6875 1.125 C1.6875 1.785 1.6875 2.445 1.6875 3.125 C-1.2825 3.125 -4.2525 3.125 -7.3125 3.125 C-7.3125 2.465 -7.3125 1.805 -7.3125 1.125 C-2.88173077 -1.09038462 -2.88173077 -1.09038462 0 0 Z " fill="#E47120" transform="translate(126.3125,88.875)"/>
<path d="M0 0 C0.66 0.33 1.32 0.66 2 1 C2 2.98 2 4.96 2 7 C0.02 7.99 0.02 7.99 -2 9 C-1.34 6.03 -0.68 3.06 0 0 Z " fill="#241C16" transform="translate(67,48)"/>
<path d="M0 0 C0.66 0 1.32 0 2 0 C3.125 7.625 3.125 7.625 2 11 C0.57741188 7.17679443 -0.24042276 4.08718695 0 0 Z " fill="#343539" transform="translate(34,127)"/>
<path d="M0 0 C3.96 0.33 7.92 0.66 12 1 C12 1.33 12 1.66 12 2 C6.06 2.495 6.06 2.495 0 3 C0 2.01 0 1.02 0 0 Z " fill="#F47019" transform="translate(32,87)"/>
<path d="M0 0 C2.475 0.495 2.475 0.495 5 1 C4.34 3.64 3.68 6.28 3 9 C0.23776722 6.23776722 0.42143709 3.79293383 0 0 Z " fill="#151D1D" transform="translate(25,82)"/>
<path d="M0 0 C3.3 0 6.6 0 10 0 C10 0.66 10 1.32 10 2 C6.7 2.33 3.4 2.66 0 3 C0 2.01 0 1.02 0 0 Z " fill="#201A1E" transform="translate(128,81)"/>
<path d="M0 0 C1.32 0 2.64 0 4 0 C4.33 1.32 4.66 2.64 5 4 C2.03 3.505 2.03 3.505 -1 3 C-0.67 2.01 -0.34 1.02 0 0 Z " fill="#F46E1E" transform="translate(147,70)"/>
<path d="M0 0 C1.65 0 3.3 0 5 0 C5.33 0.99 5.66 1.98 6 3 C4.02 3.33 2.04 3.66 0 4 C0 2.68 0 1.36 0 0 Z " fill="#281829" transform="translate(120,52)"/>
<path d="M0 0 C1.98 0 3.96 0 6 0 C6 0.99 6 1.98 6 3 C4.02 3 2.04 3 0 3 C0 2.01 0 1.02 0 0 Z " fill="#424347" transform="translate(64,140)"/>
<path d="M0 0 C0.66 0 1.32 0 2 0 C2.33 1.32 2.66 2.64 3 4 C1.02 4.99 1.02 4.99 -1 6 C-1.33 5.01 -1.66 4.02 -2 3 C-1.34 2.01 -0.68 1.02 0 0 Z " fill="#FBFCFE" transform="translate(62,140)"/>
<path d="M0 0 C0.99 0.33 1.98 0.66 3 1 C3 1.99 3 2.98 3 4 C1.68 4.33 0.36 4.66 -1 5 C-1.33 3.68 -1.66 2.36 -2 1 C-1.34 0.67 -0.68 0.34 0 0 Z " fill="#111F33" transform="translate(109,82)"/>
<path d="M0 0 C0.66 1.32 1.32 2.64 2 4 C1.34 4 0.68 4 0 4 C0 4.66 0 5.32 0 6 C-1.98 6 -3.96 6 -6 6 C-4 4 -2 2 0 0 Z " fill="#211918" transform="translate(142,43)"/>
<path d="M0 0 C0.66 0.33 1.32 0.66 2 1 C1.67 2.65 1.34 4.3 1 6 C-0.32 5.01 -1.64 4.02 -3 3 C-2.01 2.67 -1.02 2.34 0 2 C0 1.34 0 0.68 0 0 Z " fill="#FDFDFE" transform="translate(98,134)"/>
<path d="M0 0 C0.66 0.33 1.32 0.66 2 1 C2.625 3.5625 2.625 3.5625 3 6 C2.01 6.33 1.02 6.66 0 7 C0 6.34 0 5.68 0 5 C-0.66 4.67 -1.32 4.34 -2 4 C-1.34 4 -0.68 4 0 4 C0 2.68 0 1.36 0 0 Z " fill="#A65F35" transform="translate(97,100)"/>
<path d="M0 0 C3.73884332 2.65654657 5.64978174 4.58110387 7 9 C5.82460004 8.07347299 4.65989423 7.13336613 3.5 6.1875 C2.52546875 5.40439453 2.52546875 5.40439453 1.53125 4.60546875 C0 3 0 3 0 0 Z " fill="#712A05" transform="translate(90,93)"/>
<path d="M0 0 C1.98 0.66 3.96 1.32 6 2 C5.34 2.66 4.68 3.32 4 4 C1.375 3.625 1.375 3.625 -1 3 C-0.67 2.01 -0.34 1.02 0 0 Z " fill="#3C1909" transform="translate(75,83)"/>
<path d="M0 0 C3.37503669 1.1858237 5.64722731 2.27573689 8 5 C7.01 5.495 7.01 5.495 6 6 C3.97945196 4.35830472 1.97956942 2.69088222 0 1 C0 0.67 0 0.34 0 0 Z " fill="#F27324" transform="translate(79,81)"/>
<path d="M0 0 C2 3 2 3 1.625 5.6875 C1.41875 6.450625 1.2125 7.21375 1 8 C-0.32 7.01 -1.64 6.02 -3 5 C-2.01 3.35 -1.02 1.7 0 0 Z " fill="#C16B35" transform="translate(42,70)"/>
<path d="M0 0 C0.66 0 1.32 0 2 0 C2 2.31 2 4.62 2 7 C1.34 7 0.68 7 0 7 C-0.38133299 5.0085944 -0.71325582 3.00720923 -1 1 C-0.67 0.67 -0.34 0.34 0 0 Z " fill="#73AEB9" transform="translate(98,66)"/>
<path d="M0 0 C0.66 0.33 1.32 0.66 2 1 C0.35 3.64 -1.3 6.28 -3 9 C-3.33 7.68 -3.66 6.36 -4 5 C-2.0625 2.25 -2.0625 2.25 0 0 Z " fill="#372013" transform="translate(50,56)"/>
<path d="M0 0 C0.66 0 1.32 0 2 0 C2.1875 2.375 2.1875 2.375 2 5 C1.01 5.66 0.02 6.32 -1 7 C-1.04254356 5.00045254 -1.04080783 2.99958364 -1 1 C-0.67 0.67 -0.34 0.34 0 0 Z " fill="#F56C17" transform="translate(59,54)"/>
<path d="M0 0 C2.64 0.33 5.28 0.66 8 1 C7.01 1.33 6.02 1.66 5 2 C5.33 2.99 5.66 3.98 6 5 C5.34 5 4.68 5 4 5 C4 4.34 4 3.68 4 3 C2.68 2.34 1.36 1.68 0 1 C0 0.67 0 0.34 0 0 Z " fill="#172836" transform="translate(67,47)"/>
</svg>
